<svg data-cover="arms:covered" xmlns="http://www.w3.org/2000/svg" viewBox="0 0 512 512" data-copyright="© 2026 Sensory App House"><!--SAH-COPYRIGHT © 2026 Sensory App House. All rights reserved.--><metadata id="sah-copyright"><rdf:RDF xmlns:rdf="http://www.w3.org/1999/02/22-rdf-syntax-ns#" xmlns:dc="http://purl.org/dc/elements/1.1/" xmlns:cc="http://creativecommons.org/ns#"><cc:Work rdf:about=""><dc:rights><cc:Agent><dc:title>© 2026 Sensory App House. All rights reserved.</dc:title></cc:Agent></dc:rights><dc:creator><cc:Agent><dc:title>Sensory App House (PiCom)</dc:title></cc:Agent></dc:creator><dc:date>2026</dc:date></cc:Work></rdf:RDF></metadata><metadata id="sah">{"v":1,"fig":[["h1","ma"],["h2","fa"]]}</metadata><g data-fit="1" transform="translate(256 256) scale(1.1553) translate(-257.00 -269.00)">
<line x1="117" y1="303" x2="108" y2="455" stroke="#39425c" stroke-width="16.0" stroke-linecap="round"/>
<line x1="147" y1="303" x2="156" y2="455" stroke="#39425c" stroke-width="16.0" stroke-linecap="round"/>
<ellipse cx="108" cy="457" rx="13" ry="7" fill="#33373d"/>
<ellipse cx="156" cy="457" rx="13" ry="7" fill="#33373d"/>
<polygon points="100,197 164,197 162,305 102,305" fill="#e8e4d8" stroke="#1a1a1a" stroke-width="5" stroke-linejoin="round"/>
<line x1="102" y1="199" x2="82" y2="305" stroke="#1a1a1a" stroke-width="13.0" stroke-linecap="round"/>
<line x1="162" y1="199" x2="182" y2="305" stroke="#1a1a1a" stroke-width="13.0" stroke-linecap="round"/>
<line x1="132" y1="197" x2="132" y2="166" stroke="#1a1a1a" stroke-width="13.0" stroke-linecap="round"/>
<path d="M 99.0 197 L 165.0 197 L 163.0 315 L 101.0 315 Z" fill="#e8e4d8" stroke="#1a1a1a" stroke-width="4" stroke-linejoin="round"/>
<path d="M 119.0 199 L 132.0 223 L 145.0 199" fill="none" stroke="#c8c3b4" stroke-width="4" stroke-linejoin="round"/>
<line x1="132" y1="205" x2="132" y2="311" stroke="#c8c3b4" stroke-width="3" stroke-linecap="round"/>
<circle cx="132" cy="215" r="2" fill="#b6b1a2" stroke="#1a1a1a" stroke-width="0"/>
<circle cx="132" cy="229" r="2" fill="#b6b1a2" stroke="#1a1a1a" stroke-width="0"/>
<circle cx="132" cy="243" r="2" fill="#b6b1a2" stroke="#1a1a1a" stroke-width="0"/>
<rect x="102" y="315" width="28" height="136" rx="0" fill="#3a3f47" stroke="#1a1a1a" stroke-width="4"/>
<rect x="134" y="315" width="28" height="136" rx="0" fill="#3a3f47" stroke="#1a1a1a" stroke-width="4"/>
<line x1="100" y1="200" x2="164" y2="200" stroke="#9a9a92" stroke-width="2" stroke-linecap="round"/>
<line x1="82" y1="180" x2="90" y2="220" stroke="#3a3a34" stroke-width="1.6" stroke-linecap="round"/>
<line x1="90" y1="180" x2="98" y2="220" stroke="#3a3a34" stroke-width="1.6" stroke-linecap="round"/>
<line x1="98" y1="180" x2="106" y2="220" stroke="#3a3a34" stroke-width="1.6" stroke-linecap="round"/>
<line x1="106" y1="180" x2="114" y2="220" stroke="#3a3a34" stroke-width="1.6" stroke-linecap="round"/>
<line x1="114" y1="180" x2="122" y2="220" stroke="#3a3a34" stroke-width="1.6" stroke-linecap="round"/>
<line x1="122" y1="180" x2="130" y2="220" stroke="#3a3a34" stroke-width="1.6" stroke-linecap="round"/>
<line x1="130" y1="180" x2="138" y2="220" stroke="#3a3a34" stroke-width="1.6" stroke-linecap="round"/>
<line x1="138" y1="180" x2="146" y2="220" stroke="#3a3a34" stroke-width="1.6" stroke-linecap="round"/>
<line x1="102" y1="199" x2="82" y2="305" stroke="#ffffff" stroke-width="20" stroke-linecap="round"/>
<line x1="102" y1="199" x2="82" y2="305" stroke="#1a1a1a" stroke-width="13.0" stroke-linecap="round"/>
<line x1="162" y1="199" x2="182" y2="305" stroke="#ffffff" stroke-width="20" stroke-linecap="round"/>
<line x1="162" y1="199" x2="182" y2="305" stroke="#1a1a1a" stroke-width="13.0" stroke-linecap="round"/>
<circle id="h1" data-fig="ma" class="skin" cx="132" cy="130" r="40" fill="#e0b48c" stroke="#1a1a1a" stroke-width="6"/>
<path d="M 92.0 130.0 Q 92.0 80.0 132 80.0 Q 172.0 80.0 172.0 130.0 Q 132 103.0 92.0 130.0 Z" fill="#241c14" stroke="#1a1a1a" stroke-width="3" stroke-linejoin="round"/>
<path d="M 90.0 130 Q 66.0 214 100.0 222 L 164.0 222 Q 198.0 214 174.0 130 Z" fill="#f5f5ef" stroke="#1a1a1a" stroke-width="4" stroke-linejoin="round"/>
<circle cx="132" cy="130" r="40" fill="#e0b48c" stroke="#1a1a1a" stroke-width="6"/>
<path d="M 90.0 128 Q 90.0 74 132.0 74 Q 174.0 74 174.0 128 Q 132.0 102 90.0 128 Z" fill="#f5f5ef" stroke="#1a1a1a" stroke-width="4" stroke-linejoin="round"/>
<ellipse cx="132" cy="92" rx="38" ry="9" fill="none" stroke="#2b2b2b" stroke-width="7"/>
<ellipse cx="132" cy="94" rx="38" ry="8" fill="none" stroke="#1a1a1a" stroke-width="6"/>
<path d="M 350.0 197.0 L 410.0 197.0 L 410.0 287.0 L 436.0 389.0 L 324.0 389.0 L 350.0 287.0 Z" fill="#d6529e" stroke="#1a1a1a" stroke-width="5" stroke-linejoin="round"/>
<line x1="362" y1="389" x2="356" y2="455" stroke="#1a1a1a" stroke-width="13.0" stroke-linecap="round"/>
<line x1="398" y1="389" x2="404" y2="455" stroke="#1a1a1a" stroke-width="13.0" stroke-linecap="round"/>
<ellipse cx="356" cy="457" rx="13" ry="7" fill="#33373d"/>
<ellipse cx="404" cy="457" rx="13" ry="7" fill="#33373d"/>
<line x1="350" y1="199" x2="330" y2="305" stroke="#1a1a1a" stroke-width="13.0" stroke-linecap="round"/>
<line x1="410" y1="199" x2="430" y2="305" stroke="#1a1a1a" stroke-width="13.0" stroke-linecap="round"/>
<line x1="380" y1="197" x2="380" y2="166" stroke="#1a1a1a" stroke-width="13.0" stroke-linecap="round"/>
<path d="M 333.0 184.0 L 333.0 128.0 Q 333.0 76.0 380 76.0 Q 427.0 76.0 427.0 128.0 L 427.0 184.0 L 414.0 184.0 L 414.0 130.0 Q 414.0 96.0 380 96.0 Q 346.0 96.0 346.0 130.0 L 346.0 184.0 Z" fill="#5a3a1f" stroke="#1a1a1a" stroke-width="3" stroke-linejoin="round"/>
<path d="M 346.0 197 L 414.0 197 L 428.0 455 L 332.0 455 Z" fill="#23304a" stroke="#1a1a1a" stroke-width="4" stroke-linejoin="round"/>
<rect x="358" y="215" width="44" height="56" rx="0" fill="#23304a" stroke="#1a1a1a" stroke-width="3"/>
<line x1="364" y1="216" x2="370" y2="222" stroke="#c0392b" stroke-width="1.6" stroke-linecap="round"/>
<line x1="364" y1="222" x2="370" y2="216" stroke="#c0392b" stroke-width="1.6" stroke-linecap="round"/>
<line x1="372" y1="216" x2="378" y2="222" stroke="#c0392b" stroke-width="1.6" stroke-linecap="round"/>
<line x1="372" y1="222" x2="378" y2="216" stroke="#c0392b" stroke-width="1.6" stroke-linecap="round"/>
<line x1="382" y1="216" x2="388" y2="222" stroke="#c0392b" stroke-width="1.6" stroke-linecap="round"/>
<line x1="382" y1="222" x2="388" y2="216" stroke="#c0392b" stroke-width="1.6" stroke-linecap="round"/>
<line x1="390" y1="216" x2="396" y2="222" stroke="#c0392b" stroke-width="1.6" stroke-linecap="round"/>
<line x1="390" y1="222" x2="396" y2="216" stroke="#c0392b" stroke-width="1.6" stroke-linecap="round"/>
<line x1="364" y1="244" x2="370" y2="250" stroke="#c0392b" stroke-width="1.6" stroke-linecap="round"/>
<line x1="364" y1="250" x2="370" y2="244" stroke="#c0392b" stroke-width="1.6" stroke-linecap="round"/>
<line x1="372" y1="244" x2="378" y2="250" stroke="#c0392b" stroke-width="1.6" stroke-linecap="round"/>
<line x1="372" y1="250" x2="378" y2="244" stroke="#c0392b" stroke-width="1.6" stroke-linecap="round"/>
<line x1="382" y1="244" x2="388" y2="250" stroke="#c0392b" stroke-width="1.6" stroke-linecap="round"/>
<line x1="382" y1="250" x2="388" y2="244" stroke="#c0392b" stroke-width="1.6" stroke-linecap="round"/>
<line x1="390" y1="244" x2="396" y2="250" stroke="#c0392b" stroke-width="1.6" stroke-linecap="round"/>
<line x1="390" y1="250" x2="396" y2="244" stroke="#c0392b" stroke-width="1.6" stroke-linecap="round"/>
<line x1="350" y1="287" x2="340" y2="449" stroke="#c0392b" stroke-width="4" stroke-linecap="round"/>
<line x1="410" y1="287" x2="420" y2="449" stroke="#c0392b" stroke-width="4" stroke-linecap="round"/>
<line x1="345" y1="412" x2="352" y2="418" stroke="#c0392b" stroke-width="1.6" stroke-linecap="round"/>
<line x1="345" y1="418" x2="352" y2="412" stroke="#c0392b" stroke-width="1.6" stroke-linecap="round"/>
<line x1="356" y1="412" x2="362" y2="418" stroke="#c0392b" stroke-width="1.6" stroke-linecap="round"/>
<line x1="356" y1="418" x2="362" y2="412" stroke="#c0392b" stroke-width="1.6" stroke-linecap="round"/>
<line x1="366" y1="412" x2="373" y2="418" stroke="#c0392b" stroke-width="1.6" stroke-linecap="round"/>
<line x1="366" y1="418" x2="373" y2="412" stroke="#c0392b" stroke-width="1.6" stroke-linecap="round"/>
<line x1="376" y1="412" x2="384" y2="418" stroke="#c0392b" stroke-width="1.6" stroke-linecap="round"/>
<line x1="376" y1="418" x2="384" y2="412" stroke="#c0392b" stroke-width="1.6" stroke-linecap="round"/>
<line x1="387" y1="412" x2="394" y2="418" stroke="#c0392b" stroke-width="1.6" stroke-linecap="round"/>
<line x1="387" y1="418" x2="394" y2="412" stroke="#c0392b" stroke-width="1.6" stroke-linecap="round"/>
<line x1="398" y1="412" x2="404" y2="418" stroke="#c0392b" stroke-width="1.6" stroke-linecap="round"/>
<line x1="398" y1="418" x2="404" y2="412" stroke="#c0392b" stroke-width="1.6" stroke-linecap="round"/>
<line x1="408" y1="412" x2="415" y2="418" stroke="#c0392b" stroke-width="1.6" stroke-linecap="round"/>
<line x1="408" y1="418" x2="415" y2="412" stroke="#c0392b" stroke-width="1.6" stroke-linecap="round"/>
<line x1="340" y1="430" x2="347" y2="436" stroke="#c0392b" stroke-width="1.6" stroke-linecap="round"/>
<line x1="340" y1="436" x2="347" y2="430" stroke="#c0392b" stroke-width="1.6" stroke-linecap="round"/>
<line x1="350" y1="430" x2="357" y2="436" stroke="#c0392b" stroke-width="1.6" stroke-linecap="round"/>
<line x1="350" y1="436" x2="357" y2="430" stroke="#c0392b" stroke-width="1.6" stroke-linecap="round"/>
<line x1="361" y1="430" x2="368" y2="436" stroke="#c0392b" stroke-width="1.6" stroke-linecap="round"/>
<line x1="361" y1="436" x2="368" y2="430" stroke="#c0392b" stroke-width="1.6" stroke-linecap="round"/>
<line x1="371" y1="430" x2="378" y2="436" stroke="#c0392b" stroke-width="1.6" stroke-linecap="round"/>
<line x1="371" y1="436" x2="378" y2="430" stroke="#c0392b" stroke-width="1.6" stroke-linecap="round"/>
<line x1="382" y1="430" x2="389" y2="436" stroke="#c0392b" stroke-width="1.6" stroke-linecap="round"/>
<line x1="382" y1="436" x2="389" y2="430" stroke="#c0392b" stroke-width="1.6" stroke-linecap="round"/>
<line x1="392" y1="430" x2="399" y2="436" stroke="#c0392b" stroke-width="1.6" stroke-linecap="round"/>
<line x1="392" y1="436" x2="399" y2="430" stroke="#c0392b" stroke-width="1.6" stroke-linecap="round"/>
<line x1="403" y1="430" x2="410" y2="436" stroke="#c0392b" stroke-width="1.6" stroke-linecap="round"/>
<line x1="403" y1="436" x2="410" y2="430" stroke="#c0392b" stroke-width="1.6" stroke-linecap="round"/>
<line x1="413" y1="430" x2="420" y2="436" stroke="#c0392b" stroke-width="1.6" stroke-linecap="round"/>
<line x1="413" y1="436" x2="420" y2="430" stroke="#c0392b" stroke-width="1.6" stroke-linecap="round"/>
<line x1="350" y1="199" x2="330" y2="305" stroke="#ffffff" stroke-width="20" stroke-linecap="round"/>
<line x1="350" y1="199" x2="330" y2="305" stroke="#1a1a1a" stroke-width="13.0" stroke-linecap="round"/>
<line x1="410" y1="199" x2="430" y2="305" stroke="#ffffff" stroke-width="20" stroke-linecap="round"/>
<line x1="410" y1="199" x2="430" y2="305" stroke="#1a1a1a" stroke-width="13.0" stroke-linecap="round"/>
<circle id="h2" data-fig="fa" class="skin" cx="380" cy="130" r="40" fill="#e0b48c" stroke="#1a1a1a" stroke-width="6"/>
<path d="M 342.0 96.0 Q 380 82.0 418.0 96.0 Q 380 92.0 342.0 96.0 Z" fill="#5a3a1f" stroke="#1a1a1a" stroke-width="3" stroke-linejoin="round"/>
<path d="M 329.0 214 L 329.0 122 Q 329.0 74 380.0 74 Q 431.0 74 431.0 122 L 431.0 214 Q 380.0 228 329.0 214 Z" fill="#f4f3ee" stroke="#1a1a1a" stroke-width="4" stroke-linejoin="round"/>
<ellipse cx="380" cy="136" rx="26" ry="34" fill="#e0b48c" stroke="#1a1a1a" stroke-width="5"/>
<path d="M 195.0 78.0 L 317.0 78.0 Q 331.0 78.0 331.0 92.0 L 331.0 148.0 Q 331.0 162.0 317.0 162.0 L 269.0 162.0 L 266.0 192.0 L 243.0 162.0 L 195.0 162.0 Q 181.0 162.0 181.0 148.0 L 181.0 92.0 Q 181.0 78.0 195.0 78.0 Z" fill="#ffffff" stroke="#1a1a1a" stroke-width="4" stroke-linejoin="round"/>
<polygon points="210,158 188,196 232,160" fill="#ffffff" stroke="#1a1a1a" stroke-width="4" stroke-linejoin="round"/>
<polygon points="302,158 324,196 280,160" fill="#ffffff" stroke="#1a1a1a" stroke-width="4" stroke-linejoin="round"/>
<circle cx="234.0" cy="120.0" r="5.0" fill="#2b6fb0" stroke="#1a1a1a" stroke-width="0"/>
<circle cx="256.0" cy="120.0" r="5.0" fill="#2b6fb0" stroke="#1a1a1a" stroke-width="0"/>
<circle cx="278.0" cy="120.0" r="5.0" fill="#2b6fb0" stroke="#1a1a1a" stroke-width="0"/>
<line x1="196" y1="250" x2="316" y2="250" stroke="#1a1a1a" stroke-width="14.0" stroke-linecap="round"/><line x1="196" y1="250" x2="214" y2="238" stroke="#1a1a1a" stroke-width="14.0" stroke-linecap="round"/><line x1="196" y1="250" x2="214" y2="262" stroke="#1a1a1a" stroke-width="14.0" stroke-linecap="round"/><line x1="316" y1="250" x2="298" y2="238" stroke="#1a1a1a" stroke-width="14.0" stroke-linecap="round"/><line x1="316" y1="250" x2="298" y2="262" stroke="#1a1a1a" stroke-width="14.0" stroke-linecap="round"/><line x1="196" y1="250" x2="316" y2="250" stroke="#2f9e4a" stroke-width="8.5" stroke-linecap="round"/>
<line x1="196" y1="250" x2="214" y2="238" stroke="#2f9e4a" stroke-width="8.5" stroke-linecap="round"/>
<line x1="196" y1="250" x2="214" y2="262" stroke="#2f9e4a" stroke-width="8.5" stroke-linecap="round"/>
<line x1="316" y1="250" x2="298" y2="238" stroke="#2f9e4a" stroke-width="8.5" stroke-linecap="round"/>
<line x1="316" y1="250" x2="298" y2="262" stroke="#2f9e4a" stroke-width="8.5" stroke-linecap="round"/>
</g></svg>
