<svg data-cover="arms:covered" xmlns="http://www.w3.org/2000/svg" viewBox="0 0 512 512"><metadata id="sah">{"v":1,"fig":[["h1","fa"]]}</metadata>
<line x1="241" y1="303" x2="232" y2="455" stroke="#39425c" stroke-width="16.0" stroke-linecap="round"/>
<line x1="271" y1="303" x2="280" y2="455" stroke="#39425c" stroke-width="16.0" stroke-linecap="round"/>
<ellipse cx="232" cy="457" rx="13" ry="7" fill="#33373d"/>
<ellipse cx="280" cy="457" rx="13" ry="7" fill="#33373d"/>
<polygon points="224,197 288,197 286,305 226,305" fill="#23304a" stroke="#1a1a1a" stroke-width="5" stroke-linejoin="round"/>
<line x1="226" y1="199" x2="210" y2="305" stroke="#1a1a1a" stroke-width="13.0" stroke-linecap="round"/>
<line x1="286" y1="199" x2="334" y2="221" stroke="#1a1a1a" stroke-width="13.0" stroke-linecap="round"/>
<line x1="256" y1="197" x2="256" y2="166" stroke="#1a1a1a" stroke-width="13.0" stroke-linecap="round"/>
<path d="M 209.0 184.0 L 209.0 128.0 Q 209.0 76.0 256 76.0 Q 303.0 76.0 303.0 128.0 L 303.0 184.0 L 290.0 184.0 L 290.0 130.0 Q 290.0 96.0 256 96.0 Q 222.0 96.0 222.0 130.0 L 222.0 184.0 Z" fill="#5a3a1f" stroke="#1a1a1a" stroke-width="3" stroke-linejoin="round"/>
<path d="M 222.0 197 L 290.0 197 L 304.0 455 L 208.0 455 Z" fill="#23304a" stroke="#1a1a1a" stroke-width="4" stroke-linejoin="round"/>
<rect x="234" y="215" width="44" height="56" rx="0" fill="#23304a" stroke="#1a1a1a" stroke-width="3"/>
<line x1="240" y1="216" x2="246" y2="222" stroke="#c0392b" stroke-width="1.6" stroke-linecap="round"/>
<line x1="240" y1="222" x2="246" y2="216" stroke="#c0392b" stroke-width="1.6" stroke-linecap="round"/>
<line x1="248" y1="216" x2="254" y2="222" stroke="#c0392b" stroke-width="1.6" stroke-linecap="round"/>
<line x1="248" y1="222" x2="254" y2="216" stroke="#c0392b" stroke-width="1.6" stroke-linecap="round"/>
<line x1="258" y1="216" x2="264" y2="222" stroke="#c0392b" stroke-width="1.6" stroke-linecap="round"/>
<line x1="258" y1="222" x2="264" y2="216" stroke="#c0392b" stroke-width="1.6" stroke-linecap="round"/>
<line x1="266" y1="216" x2="272" y2="222" stroke="#c0392b" stroke-width="1.6" stroke-linecap="round"/>
<line x1="266" y1="222" x2="272" y2="216" stroke="#c0392b" stroke-width="1.6" stroke-linecap="round"/>
<line x1="240" y1="244" x2="246" y2="250" stroke="#c0392b" stroke-width="1.6" stroke-linecap="round"/>
<line x1="240" y1="250" x2="246" y2="244" stroke="#c0392b" stroke-width="1.6" stroke-linecap="round"/>
<line x1="248" y1="244" x2="254" y2="250" stroke="#c0392b" stroke-width="1.6" stroke-linecap="round"/>
<line x1="248" y1="250" x2="254" y2="244" stroke="#c0392b" stroke-width="1.6" stroke-linecap="round"/>
<line x1="258" y1="244" x2="264" y2="250" stroke="#c0392b" stroke-width="1.6" stroke-linecap="round"/>
<line x1="258" y1="250" x2="264" y2="244" stroke="#c0392b" stroke-width="1.6" stroke-linecap="round"/>
<line x1="266" y1="244" x2="272" y2="250" stroke="#c0392b" stroke-width="1.6" stroke-linecap="round"/>
<line x1="266" y1="250" x2="272" y2="244" stroke="#c0392b" stroke-width="1.6" stroke-linecap="round"/>
<line x1="226" y1="287" x2="216" y2="449" stroke="#c0392b" stroke-width="4" stroke-linecap="round"/>
<line x1="286" y1="287" x2="296" y2="449" stroke="#c0392b" stroke-width="4" stroke-linecap="round"/>
<line x1="221" y1="412" x2="228" y2="418" stroke="#c0392b" stroke-width="1.6" stroke-linecap="round"/>
<line x1="221" y1="418" x2="228" y2="412" stroke="#c0392b" stroke-width="1.6" stroke-linecap="round"/>
<line x1="232" y1="412" x2="238" y2="418" stroke="#c0392b" stroke-width="1.6" stroke-linecap="round"/>
<line x1="232" y1="418" x2="238" y2="412" stroke="#c0392b" stroke-width="1.6" stroke-linecap="round"/>
<line x1="242" y1="412" x2="249" y2="418" stroke="#c0392b" stroke-width="1.6" stroke-linecap="round"/>
<line x1="242" y1="418" x2="249" y2="412" stroke="#c0392b" stroke-width="1.6" stroke-linecap="round"/>
<line x1="252" y1="412" x2="260" y2="418" stroke="#c0392b" stroke-width="1.6" stroke-linecap="round"/>
<line x1="252" y1="418" x2="260" y2="412" stroke="#c0392b" stroke-width="1.6" stroke-linecap="round"/>
<line x1="263" y1="412" x2="270" y2="418" stroke="#c0392b" stroke-width="1.6" stroke-linecap="round"/>
<line x1="263" y1="418" x2="270" y2="412" stroke="#c0392b" stroke-width="1.6" stroke-linecap="round"/>
<line x1="274" y1="412" x2="280" y2="418" stroke="#c0392b" stroke-width="1.6" stroke-linecap="round"/>
<line x1="274" y1="418" x2="280" y2="412" stroke="#c0392b" stroke-width="1.6" stroke-linecap="round"/>
<line x1="284" y1="412" x2="291" y2="418" stroke="#c0392b" stroke-width="1.6" stroke-linecap="round"/>
<line x1="284" y1="418" x2="291" y2="412" stroke="#c0392b" stroke-width="1.6" stroke-linecap="round"/>
<line x1="216" y1="430" x2="223" y2="436" stroke="#c0392b" stroke-width="1.6" stroke-linecap="round"/>
<line x1="216" y1="436" x2="223" y2="430" stroke="#c0392b" stroke-width="1.6" stroke-linecap="round"/>
<line x1="226" y1="430" x2="233" y2="436" stroke="#c0392b" stroke-width="1.6" stroke-linecap="round"/>
<line x1="226" y1="436" x2="233" y2="430" stroke="#c0392b" stroke-width="1.6" stroke-linecap="round"/>
<line x1="237" y1="430" x2="244" y2="436" stroke="#c0392b" stroke-width="1.6" stroke-linecap="round"/>
<line x1="237" y1="436" x2="244" y2="430" stroke="#c0392b" stroke-width="1.6" stroke-linecap="round"/>
<line x1="247" y1="430" x2="254" y2="436" stroke="#c0392b" stroke-width="1.6" stroke-linecap="round"/>
<line x1="247" y1="436" x2="254" y2="430" stroke="#c0392b" stroke-width="1.6" stroke-linecap="round"/>
<line x1="258" y1="430" x2="265" y2="436" stroke="#c0392b" stroke-width="1.6" stroke-linecap="round"/>
<line x1="258" y1="436" x2="265" y2="430" stroke="#c0392b" stroke-width="1.6" stroke-linecap="round"/>
<line x1="268" y1="430" x2="275" y2="436" stroke="#c0392b" stroke-width="1.6" stroke-linecap="round"/>
<line x1="268" y1="436" x2="275" y2="430" stroke="#c0392b" stroke-width="1.6" stroke-linecap="round"/>
<line x1="279" y1="430" x2="286" y2="436" stroke="#c0392b" stroke-width="1.6" stroke-linecap="round"/>
<line x1="279" y1="436" x2="286" y2="430" stroke="#c0392b" stroke-width="1.6" stroke-linecap="round"/>
<line x1="289" y1="430" x2="296" y2="436" stroke="#c0392b" stroke-width="1.6" stroke-linecap="round"/>
<line x1="289" y1="436" x2="296" y2="430" stroke="#c0392b" stroke-width="1.6" stroke-linecap="round"/>
<line x1="226" y1="199" x2="210" y2="305" stroke="#ffffff" stroke-width="20" stroke-linecap="round"/>
<line x1="226" y1="199" x2="210" y2="305" stroke="#1a1a1a" stroke-width="13.0" stroke-linecap="round"/>
<line x1="286" y1="199" x2="334" y2="221" stroke="#ffffff" stroke-width="20" stroke-linecap="round"/>
<line x1="286" y1="199" x2="334" y2="221" stroke="#1a1a1a" stroke-width="13.0" stroke-linecap="round"/>
<circle id="h1" data-fig="fa" class="skin" cx="256" cy="130" r="40" fill="#e0b48c" stroke="#1a1a1a" stroke-width="6"/>
<path d="M 218.0 96.0 Q 256 82.0 294.0 96.0 Q 256 92.0 218.0 96.0 Z" fill="#5a3a1f" stroke="#1a1a1a" stroke-width="3" stroke-linejoin="round"/>
<circle cx="243" cy="127" r="4" fill="#1a1a1a" stroke="#1a1a1a" stroke-width="0"/>
<circle cx="269" cy="127" r="4" fill="#1a1a1a" stroke="#1a1a1a" stroke-width="0"/>
<path d="M 242.0 144.0 Q 256 160.0 270.0 144.0" fill="none" stroke="#1a1a1a" stroke-width="4" stroke-linejoin="round"/>
<rect x="317" y="213" width="34" height="30" rx="8" fill="#f1c9a5" stroke="#1a1a1a" stroke-width="3"/>
<rect x="333" y="189" width="15" height="26" rx="7" fill="#f1c9a5" stroke="#1a1a1a" stroke-width="3"/>
<g transform="translate(360 8) scale(0.2812)"><path d="M 256,44 L 300,178 L 441,178 L 327,262 L 370,396 L 256,313 L 142,396 L 185,262 L 71,178 L 212,178 Z" fill="#f0b400" stroke="#1a1a1a" stroke-width="26" stroke-linejoin="round"/><rect x="86" y="412" width="340" height="72" rx="16" fill="#3fae5a" stroke="#1a1a1a" stroke-width="26"/></g></svg>
