<svg data-cover="arms:covered" xmlns="http://www.w3.org/2000/svg" viewBox="31.73 52.21 438.30 438.30"><metadata id="sah">{"v":1,"fig":[["h1","ma"]]}</metadata>
<line x1="201" y1="303" x2="192" y2="455" stroke="#39425c" stroke-width="16.0" stroke-linecap="round"/>
<line x1="231" y1="303" x2="240" y2="455" stroke="#39425c" stroke-width="16.0" stroke-linecap="round"/>
<ellipse cx="192" cy="457" rx="13" ry="7" fill="#33373d"/>
<ellipse cx="240" cy="457" rx="13" ry="7" fill="#33373d"/>
<polygon points="184,197 248,197 246,305 186,305" fill="#e8e4d8" stroke="#1a1a1a" stroke-width="5" stroke-linejoin="round"/>
<line x1="186" y1="199" x2="170" y2="305" stroke="#1a1a1a" stroke-width="13.0" stroke-linecap="round"/>
<line x1="246" y1="199" x2="294" y2="221" stroke="#1a1a1a" stroke-width="13.0" stroke-linecap="round"/>
<line x1="216" y1="197" x2="216" y2="166" stroke="#1a1a1a" stroke-width="13.0" stroke-linecap="round"/>
<path d="M 183.0 197 L 249.0 197 L 247.0 315 L 185.0 315 Z" fill="#e8e4d8" stroke="#1a1a1a" stroke-width="4" stroke-linejoin="round"/>
<path d="M 203.0 199 L 216.0 223 L 229.0 199" fill="none" stroke="#c8c3b4" stroke-width="4" stroke-linejoin="round"/>
<line x1="216" y1="205" x2="216" y2="311" stroke="#c8c3b4" stroke-width="3" stroke-linecap="round"/>
<circle cx="216" cy="215" r="2" fill="#b6b1a2" stroke="#1a1a1a" stroke-width="0"/>
<circle cx="216" cy="229" r="2" fill="#b6b1a2" stroke="#1a1a1a" stroke-width="0"/>
<circle cx="216" cy="243" r="2" fill="#b6b1a2" stroke="#1a1a1a" stroke-width="0"/>
<rect x="186" y="315" width="28" height="136" rx="0" fill="#3a3f47" stroke="#1a1a1a" stroke-width="4"/>
<rect x="218" y="315" width="28" height="136" rx="0" fill="#3a3f47" stroke="#1a1a1a" stroke-width="4"/>
<line x1="184" y1="200" x2="248" y2="200" stroke="#9a9a92" stroke-width="2" stroke-linecap="round"/>
<line x1="166" y1="180" x2="174" y2="220" stroke="#3a3a34" stroke-width="1.6" stroke-linecap="round"/>
<line x1="174" y1="180" x2="182" y2="220" stroke="#3a3a34" stroke-width="1.6" stroke-linecap="round"/>
<line x1="182" y1="180" x2="190" y2="220" stroke="#3a3a34" stroke-width="1.6" stroke-linecap="round"/>
<line x1="190" y1="180" x2="198" y2="220" stroke="#3a3a34" stroke-width="1.6" stroke-linecap="round"/>
<line x1="198" y1="180" x2="206" y2="220" stroke="#3a3a34" stroke-width="1.6" stroke-linecap="round"/>
<line x1="206" y1="180" x2="214" y2="220" stroke="#3a3a34" stroke-width="1.6" stroke-linecap="round"/>
<line x1="214" y1="180" x2="222" y2="220" stroke="#3a3a34" stroke-width="1.6" stroke-linecap="round"/>
<line x1="222" y1="180" x2="230" y2="220" stroke="#3a3a34" stroke-width="1.6" stroke-linecap="round"/>
<line x1="186" y1="199" x2="170" y2="305" stroke="#ffffff" stroke-width="20" stroke-linecap="round"/>
<line x1="186" y1="199" x2="170" y2="305" stroke="#1a1a1a" stroke-width="13.0" stroke-linecap="round"/>
<line x1="246" y1="199" x2="294" y2="221" stroke="#ffffff" stroke-width="20" stroke-linecap="round"/>
<line x1="246" y1="199" x2="294" y2="221" stroke="#1a1a1a" stroke-width="13.0" stroke-linecap="round"/>
<circle id="h1" data-fig="ma" class="skin" cx="216" cy="130" r="40" fill="#e0b48c" stroke="#1a1a1a" stroke-width="6"/>
<path d="M 176.0 130.0 Q 176.0 80.0 216 80.0 Q 256.0 80.0 256.0 130.0 Q 216 103.0 176.0 130.0 Z" fill="#241c14" stroke="#1a1a1a" stroke-width="3" stroke-linejoin="round"/>
<path d="M 174.0 130 Q 150.0 214 184.0 222 L 248.0 222 Q 282.0 214 258.0 130 Z" fill="#f5f5ef" stroke="#1a1a1a" stroke-width="4" stroke-linejoin="round"/>
<circle cx="216" cy="130" r="40" fill="#e0b48c" stroke="#1a1a1a" stroke-width="6"/>
<path d="M 174.0 128 Q 174.0 74 216.0 74 Q 258.0 74 258.0 128 Q 216.0 102 174.0 128 Z" fill="#f5f5ef" stroke="#1a1a1a" stroke-width="4" stroke-linejoin="round"/>
<ellipse cx="216" cy="92" rx="38" ry="9" fill="none" stroke="#2b2b2b" stroke-width="7"/>
<ellipse cx="216" cy="94" rx="38" ry="8" fill="none" stroke="#1a1a1a" stroke-width="6"/>
<circle cx="203" cy="127" r="4" fill="#1a1a1a" stroke="#1a1a1a" stroke-width="0"/>
<circle cx="229" cy="127" r="4" fill="#1a1a1a" stroke="#1a1a1a" stroke-width="0"/>
<path d="M 202.0 144.0 Q 216 160.0 230.0 144.0" fill="none" stroke="#1a1a1a" stroke-width="4" stroke-linejoin="round"/>
<ellipse cx="302" cy="221" rx="30" ry="26" fill="#e0473c" stroke="#1a1a1a" stroke-width="4"/>
<circle cx="292" cy="221" r="11" fill="#e0b48c" stroke="#1a1a1a" stroke-width="3"/>
<g transform="translate(314 221) scale(1.450) translate(-314 -221)"><line x1="314" y1="198" x2="319" y2="187" stroke="#f0b400" stroke-width="3" stroke-linecap="round"/></g>
<g transform="translate(314 221) scale(1.450) translate(-314 -221)"><line x1="326" y1="211" x2="337" y2="206" stroke="#f0b400" stroke-width="3" stroke-linecap="round"/></g>
<g transform="translate(314 221) scale(1.450) translate(-314 -221)"><line x1="326" y1="231" x2="337" y2="236" stroke="#f0b400" stroke-width="3" stroke-linecap="round"/></g>
<g transform="translate(314 221) scale(1.450) translate(-314 -221)"><line x1="314" y1="244" x2="319" y2="255" stroke="#f0b400" stroke-width="3" stroke-linecap="round"/></g>
<line x1="290" y1="244" x2="285" y2="255" stroke="#f0b400" stroke-width="3" stroke-linecap="round"/>
<line x1="278" y1="231" x2="267" y2="236" stroke="#f0b400" stroke-width="3" stroke-linecap="round"/>
<line x1="278" y1="211" x2="267" y2="206" stroke="#f0b400" stroke-width="3" stroke-linecap="round"/>
<line x1="290" y1="198" x2="285" y2="187" stroke="#f0b400" stroke-width="3" stroke-linecap="round"/>
</svg>
