<svg data-cover="arms:covered" xmlns="http://www.w3.org/2000/svg" viewBox="0 0 512 512" data-copyright="© 2026 Sensory App House"><!--SAH-COPYRIGHT © 2026 Sensory App House. All rights reserved.--><metadata id="sah-copyright"><rdf:RDF xmlns:rdf="http://www.w3.org/1999/02/22-rdf-syntax-ns#" xmlns:dc="http://purl.org/dc/elements/1.1/" xmlns:cc="http://creativecommons.org/ns#"><cc:Work rdf:about=""><dc:rights><cc:Agent><dc:title>© 2026 Sensory App House. All rights reserved.</dc:title></cc:Agent></dc:rights><dc:creator><cc:Agent><dc:title>Sensory App House (PiCom)</dc:title></cc:Agent></dc:creator><dc:date>2026</dc:date></cc:Work></rdf:RDF></metadata><metadata id="sah">{"v":1,"fig":[["h1","ma"]]}</metadata><g data-fit="1" transform="translate(256 256) scale(1.1612) translate(-288.00 -270.00)">
<line x1="251" y1="305" x2="212" y2="369" stroke="#f5d6b0" stroke-width="15" stroke-linecap="round"/>
<line x1="212" y1="369" x2="178" y2="455" stroke="#f5d6b0" stroke-width="15" stroke-linecap="round"/>
<line x1="281" y1="305" x2="314" y2="363" stroke="#f5d6b0" stroke-width="15" stroke-linecap="round"/>
<line x1="314" y1="363" x2="342" y2="455" stroke="#f5d6b0" stroke-width="15" stroke-linecap="round"/>
<ellipse cx="178.0" cy="457.0" rx="15.0" ry="7.0" fill="#7c6f57" stroke="#1a1a1a" stroke-width="0"/>
<ellipse cx="342.0" cy="457.0" rx="15.0" ry="7.0" fill="#7c6f57" stroke="#1a1a1a" stroke-width="0"/>
<polygon points="248,197 300,197 288,305 244,305" fill="#f5d6b0" stroke="#cdb48c" stroke-width="4" stroke-linejoin="round"/>
<line x1="296" y1="201" x2="332" y2="183" stroke="#f5d6b0" stroke-width="13" stroke-linecap="round"/>
<line x1="332" y1="183" x2="360" y2="125" stroke="#f5d6b0" stroke-width="13" stroke-linecap="round"/>
<line x1="252" y1="201" x2="230" y2="251" stroke="#f5d6b0" stroke-width="13" stroke-linecap="round"/>
<line x1="230" y1="251" x2="198" y2="305" stroke="#f5d6b0" stroke-width="13" stroke-linecap="round"/>
<line x1="274" y1="197" x2="286" y2="169" stroke="#f5d6b0" stroke-width="13" stroke-linecap="round"/>
<g transform="translate(0,3)"><path d="M 252.0 197 L 320.0 197 L 318.0 335 L 254.0 335 Z" fill="#e8e4d8" stroke="#1a1a1a" stroke-width="4"/>
<path d="M 253.0 197 L 319.0 197 L 317.0 315 L 255.0 315 Z" fill="#e8e4d8" stroke="#1a1a1a" stroke-width="4" stroke-linejoin="round"/>
<path d="M 273.0 199 L 286.0 223 L 299.0 199" fill="none" stroke="#c8c3b4" stroke-width="4" stroke-linejoin="round"/>
<line x1="286" y1="205" x2="286" y2="311" stroke="#c8c3b4" stroke-width="3" stroke-linecap="round"/>
<circle cx="286" cy="215" r="2" fill="#b6b1a2" stroke="#1a1a1a" stroke-width="0"/>
<circle cx="286" cy="229" r="2" fill="#b6b1a2" stroke="#1a1a1a" stroke-width="0"/>
<circle cx="286" cy="243" r="2" fill="#b6b1a2" stroke="#1a1a1a" stroke-width="0"/>
<line x1="254" y1="200" x2="318" y2="200" stroke="#9a9a92" stroke-width="2" stroke-linecap="round"/>
<line x1="236" y1="180" x2="244" y2="220" stroke="#3a3a34" stroke-width="1.6" stroke-linecap="round"/>
<line x1="244" y1="180" x2="252" y2="220" stroke="#3a3a34" stroke-width="1.6" stroke-linecap="round"/>
<line x1="252" y1="180" x2="260" y2="220" stroke="#3a3a34" stroke-width="1.6" stroke-linecap="round"/>
<line x1="260" y1="180" x2="268" y2="220" stroke="#3a3a34" stroke-width="1.6" stroke-linecap="round"/>
<line x1="268" y1="180" x2="276" y2="220" stroke="#3a3a34" stroke-width="1.6" stroke-linecap="round"/>
<line x1="276" y1="180" x2="284" y2="220" stroke="#3a3a34" stroke-width="1.6" stroke-linecap="round"/>
<line x1="284" y1="180" x2="292" y2="220" stroke="#3a3a34" stroke-width="1.6" stroke-linecap="round"/>
<line x1="292" y1="180" x2="300" y2="220" stroke="#3a3a34" stroke-width="1.6" stroke-linecap="round"/></g>
<line x1="296" y1="201" x2="332" y2="183" stroke="#ffffff" stroke-width="20" stroke-linecap="round"/>
<line x1="296" y1="201" x2="332" y2="183" stroke="#f5d6b0" stroke-width="13" stroke-linecap="round"/>
<line x1="252" y1="201" x2="230" y2="251" stroke="#ffffff" stroke-width="20" stroke-linecap="round"/>
<line x1="252" y1="201" x2="230" y2="251" stroke="#f5d6b0" stroke-width="13" stroke-linecap="round"/>
<circle id="h1" data-fig="ma" class="skin" cx="286" cy="133" r="40" fill="#e0b48c" stroke="#1a1a1a" stroke-width="6"/>
<path d="M 246 133 Q 246 83 286 83 Q 326 83 326 133 Q 286 106 246 133 Z" fill="#241c14" stroke="#1a1a1a" stroke-width="3" stroke-linejoin="round"/>
<g transform="translate(0,3)"><path d="M 244.0 130 Q 220.0 214 254.0 222 L 318.0 222 Q 352.0 214 328.0 130 Z" fill="#f5f5ef" stroke="#1a1a1a" stroke-width="4" stroke-linejoin="round"/>
<circle cx="286" cy="130" r="40" fill="#e0b48c" stroke="#1a1a1a" stroke-width="6"/>
<path d="M 244.0 128 Q 244.0 74 286.0 74 Q 328.0 74 328.0 128 Q 286.0 102 244.0 128 Z" fill="#f5f5ef" stroke="#1a1a1a" stroke-width="4" stroke-linejoin="round"/>
<ellipse cx="286" cy="92" rx="38" ry="9" fill="none" stroke="#2b2b2b" stroke-width="7"/>
<ellipse cx="286" cy="94" rx="38" ry="8" fill="none" stroke="#1a1a1a" stroke-width="6"/></g>
<circle cx="370.0" cy="119.0" r="40.0" fill="#c9c2b4" stroke="#7c6f57" stroke-width="5"/>
<circle cx="370.0" cy="119.0" r="40.0" fill="none" stroke="#9aa0a6" stroke-width="3"/>
<circle cx="370.0" cy="119.0" r="14.0" fill="#cdbfa3" stroke="#1a1a1a" stroke-width="0"/>
<circle cx="360.0" cy="125.0" r="11.0" fill="#e0b48c" stroke="#cdb48c" stroke-width="3"/>
</g></svg>
