<svg data-cover="arms:covered" xmlns="http://www.w3.org/2000/svg" viewBox="0 0 512 512" data-copyright="© 2026 Sensory App House"><!--SAH-COPYRIGHT © 2026 Sensory App House. All rights reserved.--><metadata id="sah-copyright"><rdf:RDF xmlns:rdf="http://www.w3.org/1999/02/22-rdf-syntax-ns#" xmlns:dc="http://purl.org/dc/elements/1.1/" xmlns:cc="http://creativecommons.org/ns#"><cc:Work rdf:about=""><dc:rights><cc:Agent><dc:title>© 2026 Sensory App House. All rights reserved.</dc:title></cc:Agent></dc:rights><dc:creator><cc:Agent><dc:title>Sensory App House (PiCom)</dc:title></cc:Agent></dc:creator><dc:date>2026</dc:date></cc:Work></rdf:RDF></metadata><metadata id="sah">{"v":1,"fig":[["h1","ma"]]}</metadata><g data-fit="1" transform="translate(256 256) scale(1.1673) translate(-307.50 -271.00)">
<line x1="161" y1="303" x2="152" y2="455" stroke="#39425c" stroke-width="16.0" stroke-linecap="round"/>
<line x1="191" y1="303" x2="200" y2="455" stroke="#39425c" stroke-width="16.0" stroke-linecap="round"/>
<ellipse cx="152" cy="457" rx="13" ry="7" fill="#33373d"/>
<ellipse cx="200" cy="457" rx="13" ry="7" fill="#33373d"/>
<polygon points="144,197 208,197 206,305 146,305" fill="#5fae5a" stroke="#1a1a1a" stroke-width="5" stroke-linejoin="round"/>
<line x1="146" y1="199" x2="130" y2="305" stroke="#1a1a1a" stroke-width="13.0" stroke-linecap="round"/>
<line x1="206" y1="199" x2="254" y2="221" stroke="#1a1a1a" stroke-width="13.0" stroke-linecap="round"/>
<line x1="176" y1="197" x2="176" y2="166" stroke="#1a1a1a" stroke-width="13.0" stroke-linecap="round"/>
<path d="M 143.0 197 L 209.0 197 L 207.0 315 L 145.0 315 Z" fill="#e8e4d8" stroke="#1a1a1a" stroke-width="4" stroke-linejoin="round"/>
<path d="M 163.0 199 L 176.0 223 L 189.0 199" fill="none" stroke="#c8c3b4" stroke-width="4" stroke-linejoin="round"/>
<line x1="176" y1="205" x2="176" y2="311" stroke="#c8c3b4" stroke-width="3" stroke-linecap="round"/>
<circle cx="176" cy="215" r="2" fill="#b6b1a2" stroke="#1a1a1a" stroke-width="0"/>
<circle cx="176" cy="229" r="2" fill="#b6b1a2" stroke="#1a1a1a" stroke-width="0"/>
<circle cx="176" cy="243" r="2" fill="#b6b1a2" stroke="#1a1a1a" stroke-width="0"/>
<rect x="146" y="315" width="28" height="136" rx="0" fill="#3a3f47" stroke="#1a1a1a" stroke-width="4"/>
<rect x="178" y="315" width="28" height="136" rx="0" fill="#3a3f47" stroke="#1a1a1a" stroke-width="4"/>
<line x1="144" y1="200" x2="208" y2="200" stroke="#9a9a92" stroke-width="2" stroke-linecap="round"/>
<line x1="126" y1="180" x2="134" y2="220" stroke="#3a3a34" stroke-width="1.6" stroke-linecap="round"/>
<line x1="134" y1="180" x2="142" y2="220" stroke="#3a3a34" stroke-width="1.6" stroke-linecap="round"/>
<line x1="142" y1="180" x2="150" y2="220" stroke="#3a3a34" stroke-width="1.6" stroke-linecap="round"/>
<line x1="150" y1="180" x2="158" y2="220" stroke="#3a3a34" stroke-width="1.6" stroke-linecap="round"/>
<line x1="158" y1="180" x2="166" y2="220" stroke="#3a3a34" stroke-width="1.6" stroke-linecap="round"/>
<line x1="166" y1="180" x2="174" y2="220" stroke="#3a3a34" stroke-width="1.6" stroke-linecap="round"/>
<line x1="174" y1="180" x2="182" y2="220" stroke="#3a3a34" stroke-width="1.6" stroke-linecap="round"/>
<line x1="182" y1="180" x2="190" y2="220" stroke="#3a3a34" stroke-width="1.6" stroke-linecap="round"/>
<line x1="146" y1="199" x2="130" y2="305" stroke="#ffffff" stroke-width="20" stroke-linecap="round"/>
<line x1="146" y1="199" x2="130" y2="305" stroke="#1a1a1a" stroke-width="13.0" stroke-linecap="round"/>
<line x1="206" y1="199" x2="254" y2="221" stroke="#ffffff" stroke-width="20" stroke-linecap="round"/>
<line x1="206" y1="199" x2="254" y2="221" stroke="#1a1a1a" stroke-width="13.0" stroke-linecap="round"/>
<circle id="h1" data-fig="ma" class="skin" cx="176" cy="130" r="40" fill="#e0b48c" stroke="#1a1a1a" stroke-width="6"/>
<path d="M 136.0 130.0 Q 136.0 80.0 176 80.0 Q 216.0 80.0 216.0 130.0 Q 176 103.0 136.0 130.0 Z" fill="#241c14" stroke="#1a1a1a" stroke-width="3" stroke-linejoin="round"/>
<path d="M 134.0 130 Q 110.0 214 144.0 222 L 208.0 222 Q 242.0 214 218.0 130 Z" fill="#f5f5ef" stroke="#1a1a1a" stroke-width="4" stroke-linejoin="round"/>
<circle cx="176" cy="130" r="40" fill="#e0b48c" stroke="#1a1a1a" stroke-width="6"/>
<path d="M 134.0 128 Q 134.0 74 176.0 74 Q 218.0 74 218.0 128 Q 176.0 102 134.0 128 Z" fill="#f5f5ef" stroke="#1a1a1a" stroke-width="4" stroke-linejoin="round"/>
<ellipse cx="176" cy="92" rx="38" ry="9" fill="none" stroke="#2b2b2b" stroke-width="7"/>
<ellipse cx="176" cy="94" rx="38" ry="8" fill="none" stroke="#1a1a1a" stroke-width="6"/>
<!-- GOODS LEAVING the seller (top): shopping bag moving right to the buyer -->
<path d="M 250 150 L 320 150 L 328 232 L 242 232 Z" fill="#e0473c" stroke="#a33229" stroke-width="5" stroke-linejoin="round"/>
<path d="M 268 150 Q 268 122 285 122 Q 302 122 302 150" fill="none" stroke="#a33229" stroke-width="7" stroke-linejoin="round"/>
<line x1="238" y1="320" x2="258" y2="332" stroke="#1a1a1a" stroke-width="20.0" stroke-linecap="round"/><line x1="452" y1="180" x2="432" y2="192" stroke="#1a1a1a" stroke-width="20.0" stroke-linecap="round"/><line x1="238" y1="320" x2="258" y2="308" stroke="#1a1a1a" stroke-width="20.0" stroke-linecap="round"/><line x1="452" y1="180" x2="432" y2="168" stroke="#1a1a1a" stroke-width="20.0" stroke-linecap="round"/><line x1="338" y1="180" x2="452" y2="180" stroke="#1a1a1a" stroke-width="20.0" stroke-linecap="round"/><line x1="346" y1="320" x2="238" y2="320" stroke="#1a1a1a" stroke-width="20.0" stroke-linecap="round"/><line x1="338" y1="180" x2="452" y2="180" stroke="#5fae5a" stroke-width="14.5" stroke-linecap="round"/>
<line x1="452" y1="180" x2="432" y2="168" stroke="#5fae5a" stroke-width="14.5" stroke-linecap="round"/>
<line x1="452" y1="180" x2="432" y2="192" stroke="#5fae5a" stroke-width="14.5" stroke-linecap="round"/>
<!-- MONEY COMING BACK to the seller (bottom): coin returns left -->
<circle cx="400.0" cy="300.0" r="44.0" fill="#c98a0e"/>
<circle cx="400.0" cy="300.0" r="38.7" fill="#f2b51e"/>
<circle cx="400.0" cy="300.0" r="38.7" fill="none" stroke="#c98a0e" stroke-width="3"/>
<g fill="none" stroke="#8a5e08" stroke-width="8.25" stroke-linecap="round" stroke-linejoin="round"><path d="M 416.5 277.5 Q 416.5 267.0 405.2 267.0 Q 391.0 267.0 391.0 284.2 L 391.0 316.5"/><path d="M 381.2 323.2 L 424.0 323.2"/><path d="M 381.2 302.2 L 411.2 302.2"/></g>
<line x1="346" y1="320" x2="238" y2="320" stroke="#5fae5a" stroke-width="14.5" stroke-linecap="round"/>
<line x1="238" y1="320" x2="258" y2="308" stroke="#5fae5a" stroke-width="14.5" stroke-linecap="round"/>
<line x1="238" y1="320" x2="258" y2="332" stroke="#5fae5a" stroke-width="14.5" stroke-linecap="round"/>
</g></svg>
