<svg data-cover="arms:covered" xmlns="http://www.w3.org/2000/svg" viewBox="3.34 51.98 442.18 442.18"><metadata id="sah">{"v":1,"fig":[["h1","ma"]]}</metadata>
<polygon points="40,470 430,470 430,490 40,490" fill="#cfe6f5" stroke="#1a1a1a" stroke-width="0"/>
<line x1="74" y1="318" x2="104" y2="318" stroke="#7fa6bf" stroke-width="4" stroke-linecap="round"/>
<line x1="74" y1="340" x2="104" y2="340" stroke="#7fa6bf" stroke-width="4" stroke-linecap="round"/>
<line x1="74" y1="362" x2="104" y2="362" stroke="#7fa6bf" stroke-width="4" stroke-linecap="round"/>
<line x1="118" y1="448" x2="290" y2="448" stroke="#e0473c" stroke-width="9" stroke-linecap="round"/>
<path d="M 118 448 Q 100 448 100 440 L 108 440 Q 110 444 120 444 Z" fill="#e0473c" stroke="#1a1a1a" stroke-width="3" stroke-linejoin="round"/>
<line x1="138" y1="462" x2="310" y2="462" stroke="#e0473c" stroke-width="9" stroke-linecap="round"/>
<path d="M 138 462 Q 120 462 120 454 L 128 454 Q 130 458 140 458 Z" fill="#e0473c" stroke="#1a1a1a" stroke-width="3" stroke-linejoin="round"/>
<line x1="290" y1="300" x2="320" y2="330" stroke="#5b6470" stroke-width="6" stroke-linecap="round"/>
<line x1="320" y1="330" x2="312" y2="452" stroke="#5b6470" stroke-width="6" stroke-linecap="round"/>
<line x1="282" y1="300" x2="298" y2="300" stroke="#5b6470" stroke-width="6" stroke-linecap="round"/>
<circle cx="312" cy="452" r="6" fill="none" stroke="#5b6470" stroke-width="3"/>
<line x1="232" y1="338" x2="208" y2="392" stroke="#39425c" stroke-width="16.0" stroke-linecap="round"/>
<line x1="208" y1="392" x2="222" y2="448" stroke="#39425c" stroke-width="16.0" stroke-linecap="round"/>
<line x1="244" y1="340" x2="252" y2="396" stroke="#39425c" stroke-width="16.0" stroke-linecap="round"/>
<line x1="252" y1="396" x2="258" y2="450" stroke="#39425c" stroke-width="16.0" stroke-linecap="round"/>
<polygon points="220,210 286,196 270,344 230,344" fill="#e8e4d8" stroke="#1a1a1a" stroke-width="5" stroke-linejoin="round"/>
<line x1="266" y1="212" x2="290" y2="300" stroke="#1a1a1a" stroke-width="13.0" stroke-linecap="round"/>
<line x1="238" y1="206" x2="234" y2="176" stroke="#1a1a1a" stroke-width="13.0" stroke-linecap="round"/>
<path d="M 203.0 197 L 269.0 197 L 267.0 315 L 205.0 315 Z" fill="#e8e4d8" stroke="#1a1a1a" stroke-width="4" stroke-linejoin="round"/>
<path d="M 223.0 199 L 236.0 223 L 249.0 199" fill="none" stroke="#c8c3b4" stroke-width="4" stroke-linejoin="round"/>
<line x1="236" y1="205" x2="236" y2="311" stroke="#c8c3b4" stroke-width="3" stroke-linecap="round"/>
<circle cx="236" cy="215" r="2" fill="#b6b1a2" stroke="#1a1a1a" stroke-width="0"/>
<circle cx="236" cy="229" r="2" fill="#b6b1a2" stroke="#1a1a1a" stroke-width="0"/>
<circle cx="236" cy="243" r="2" fill="#b6b1a2" stroke="#1a1a1a" stroke-width="0"/>
<rect x="206" y="315" width="28" height="136" rx="0" fill="#3a3f47" stroke="#1a1a1a" stroke-width="4"/>
<rect x="238" y="315" width="28" height="136" rx="0" fill="#3a3f47" stroke="#1a1a1a" stroke-width="4"/>
<line x1="204" y1="200" x2="268" y2="200" stroke="#9a9a92" stroke-width="2" stroke-linecap="round"/>
<line x1="186" y1="180" x2="194" y2="220" stroke="#3a3a34" stroke-width="1.6" stroke-linecap="round"/>
<line x1="194" y1="180" x2="202" y2="220" stroke="#3a3a34" stroke-width="1.6" stroke-linecap="round"/>
<line x1="202" y1="180" x2="210" y2="220" stroke="#3a3a34" stroke-width="1.6" stroke-linecap="round"/>
<line x1="210" y1="180" x2="218" y2="220" stroke="#3a3a34" stroke-width="1.6" stroke-linecap="round"/>
<line x1="218" y1="180" x2="226" y2="220" stroke="#3a3a34" stroke-width="1.6" stroke-linecap="round"/>
<line x1="226" y1="180" x2="234" y2="220" stroke="#3a3a34" stroke-width="1.6" stroke-linecap="round"/>
<line x1="234" y1="180" x2="242" y2="220" stroke="#3a3a34" stroke-width="1.6" stroke-linecap="round"/>
<line x1="242" y1="180" x2="250" y2="220" stroke="#3a3a34" stroke-width="1.6" stroke-linecap="round"/>
<line x1="266" y1="212" x2="290" y2="300" stroke="#ffffff" stroke-width="20" stroke-linecap="round"/>
<line x1="266" y1="212" x2="290" y2="300" stroke="#1a1a1a" stroke-width="13.0" stroke-linecap="round"/>
<circle id="h1" data-fig="ma" class="skin" cx="236" cy="130" r="40" fill="#e0b48c" stroke="#1a1a1a" stroke-width="6"/>

<path d="M 197 122 Q 200 86 236 86 Q 276 86 276 132 L 276 150 Q 272 122 254 116 Q 232 108 214 120 Q 202 128 200 142 Q 196 130 197 122 Z" fill="#241c14" stroke="#1a1a1a" stroke-width="3" stroke-linejoin="round"/>
<path d="M 194.0 130 Q 170.0 214 204.0 222 L 268.0 222 Q 302.0 214 278.0 130 Z" fill="#f5f5ef" stroke="#1a1a1a" stroke-width="4" stroke-linejoin="round"/>
<circle cx="236" cy="130" r="40" fill="#e0b48c" stroke="#1a1a1a" stroke-width="6"/>
<path d="M 194.0 128 Q 194.0 74 236.0 74 Q 278.0 74 278.0 128 Q 236.0 102 194.0 128 Z" fill="#f5f5ef" stroke="#1a1a1a" stroke-width="4" stroke-linejoin="round"/>
<ellipse cx="236" cy="92" rx="38" ry="9" fill="none" stroke="#2b2b2b" stroke-width="7"/>
<ellipse cx="236" cy="94" rx="38" ry="8" fill="none" stroke="#1a1a1a" stroke-width="6"/>
<g transform="translate(3.34,51.98) scale(0.8636) translate(425,5) scale(0.4825) translate(-166,-5) scale(-1,1) translate(-332,0)"><polygon points="82,149 83,157 84,166 86,174 89,182 92,189 97,196 101,202 107,208 113,214 119,219 126,223 134,226 141,229 149,231 158,232 166,233 175,232 183,231 191,229 199,226 206,223 213,219 220,214 226,208 231,202 236,196 240,189 244,182 246,174 249,166 250,157 250,149 250,140 249,132 246,124 244,116 240,109 236,102 231,95 226,89 220,84 213,79 206,75 199,71 191,69 183,67 175,65 166,65 158,65 149,67 141,69 134,71 126,75 119,79 113,84 107,89 101,95 97,102 92,109 89,116 86,124 84,132 83,140 82,149" fill="#ffffff" stroke="#000000" stroke-width="8" fill-rule="evenodd"/><polyline points="166,209 166,225" fill="none" stroke="#000000" stroke-width="8"/><polyline points="106,149 90,149"  fill="none" stroke="#000000" stroke-width="8"/><polyline points="243,149 226,149" fill="none" stroke="#000000" stroke-width="8"/><polyline points="124,191 112,203" fill="none" stroke="#000000" stroke-width="8"/><polyline points="220,95 209,106"  fill="none" stroke="#000000" stroke-width="8"/><polyline points="220,203 209,191" fill="none" stroke="#000000" stroke-width="8"/><polyline points="112,95 123,106"  fill="none" stroke="#000000" stroke-width="8"/><polygon points="158,81 159,84 161,87 164,89 167,90 171,89 173,87 175,84 176,81 175,77 173,74 171,72 167,72 164,72 161,74 159,77 158,81" fill="#000000" stroke="#000000" stroke-width="5"/><polygon points="168,98 174,153 159,151 168,98" fill="#000000" stroke="#000000" stroke-width="5"/><polygon points="157,149 158,152 160,155 163,157 166,158 170,157 173,155 175,152 175,149 175,145 173,142 170,141 166,140 163,141 160,142 158,145 157,149" fill="#000000" stroke="#000000" stroke-width="5"/><polygon points="135,33 170,5 180,17 145,45 153,55 104,66 127,23 135,33" fill="#e03734" stroke="#000000" stroke-width="6"/></g></svg>
