<svg data-cover="arms:covered" xmlns="http://www.w3.org/2000/svg" viewBox="0 0 512 512" data-copyright="© 2026 Sensory App House"><!--SAH-COPYRIGHT © 2026 Sensory App House. All rights reserved.--><metadata id="sah-copyright"><rdf:RDF xmlns:rdf="http://www.w3.org/1999/02/22-rdf-syntax-ns#" xmlns:dc="http://purl.org/dc/elements/1.1/" xmlns:cc="http://creativecommons.org/ns#"><cc:Work rdf:about=""><dc:rights><cc:Agent><dc:title>© 2026 Sensory App House. All rights reserved.</dc:title></cc:Agent></dc:rights><dc:creator><cc:Agent><dc:title>Sensory App House (PiCom)</dc:title></cc:Agent></dc:creator><dc:date>2026</dc:date></cc:Work></rdf:RDF></metadata><metadata id="sah">{"v":1,"fig":[["h1","fa"],["h2","fa"],["h3","mc"]]}</metadata><g data-fit="1" transform="translate(256 256) scale(1.1349) translate(-256.00 -265.50)">
<path d="M 120.0 197.0 L 180.0 197.0 L 180.0 287.0 L 206.0 389.0 L 94.0 389.0 L 120.0 287.0 Z" fill="#d6529e" stroke="#1a1a1a" stroke-width="5" stroke-linejoin="round"/>
<line x1="132" y1="389" x2="126" y2="455" stroke="#1a1a1a" stroke-width="13.0" stroke-linecap="round"/>
<line x1="168" y1="389" x2="174" y2="455" stroke="#1a1a1a" stroke-width="13.0" stroke-linecap="round"/>
<ellipse cx="126" cy="457" rx="13" ry="7" fill="#33373d"/>
<ellipse cx="174" cy="457" rx="13" ry="7" fill="#33373d"/>
<line x1="120" y1="199" x2="100" y2="305" stroke="#1a1a1a" stroke-width="13.0" stroke-linecap="round"/>
<line x1="180" y1="199" x2="200" y2="305" stroke="#1a1a1a" stroke-width="13.0" stroke-linecap="round"/>
<line x1="150" y1="197" x2="150" y2="166" stroke="#1a1a1a" stroke-width="13.0" stroke-linecap="round"/>
<path d="M 103.0 184.0 L 103.0 128.0 Q 103.0 76.0 150 76.0 Q 197.0 76.0 197.0 128.0 L 197.0 184.0 L 184.0 184.0 L 184.0 130.0 Q 184.0 96.0 150 96.0 Q 116.0 96.0 116.0 130.0 L 116.0 184.0 Z" fill="#5a3a1f" stroke="#1a1a1a" stroke-width="3" stroke-linejoin="round"/>
<path d="M 116.0 197 L 184.0 197 L 198.0 455 L 102.0 455 Z" fill="#23304a" stroke="#1a1a1a" stroke-width="4" stroke-linejoin="round"/>
<rect x="128" y="215" width="44" height="56" rx="0" fill="#23304a" stroke="#1a1a1a" stroke-width="3"/>
<line x1="134" y1="216" x2="140" y2="222" stroke="#c0392b" stroke-width="1.6" stroke-linecap="round"/>
<line x1="134" y1="222" x2="140" y2="216" stroke="#c0392b" stroke-width="1.6" stroke-linecap="round"/>
<line x1="142" y1="216" x2="148" y2="222" stroke="#c0392b" stroke-width="1.6" stroke-linecap="round"/>
<line x1="142" y1="222" x2="148" y2="216" stroke="#c0392b" stroke-width="1.6" stroke-linecap="round"/>
<line x1="152" y1="216" x2="158" y2="222" stroke="#c0392b" stroke-width="1.6" stroke-linecap="round"/>
<line x1="152" y1="222" x2="158" y2="216" stroke="#c0392b" stroke-width="1.6" stroke-linecap="round"/>
<line x1="160" y1="216" x2="166" y2="222" stroke="#c0392b" stroke-width="1.6" stroke-linecap="round"/>
<line x1="160" y1="222" x2="166" y2="216" stroke="#c0392b" stroke-width="1.6" stroke-linecap="round"/>
<line x1="134" y1="244" x2="140" y2="250" stroke="#c0392b" stroke-width="1.6" stroke-linecap="round"/>
<line x1="134" y1="250" x2="140" y2="244" stroke="#c0392b" stroke-width="1.6" stroke-linecap="round"/>
<line x1="142" y1="244" x2="148" y2="250" stroke="#c0392b" stroke-width="1.6" stroke-linecap="round"/>
<line x1="142" y1="250" x2="148" y2="244" stroke="#c0392b" stroke-width="1.6" stroke-linecap="round"/>
<line x1="152" y1="244" x2="158" y2="250" stroke="#c0392b" stroke-width="1.6" stroke-linecap="round"/>
<line x1="152" y1="250" x2="158" y2="244" stroke="#c0392b" stroke-width="1.6" stroke-linecap="round"/>
<line x1="160" y1="244" x2="166" y2="250" stroke="#c0392b" stroke-width="1.6" stroke-linecap="round"/>
<line x1="160" y1="250" x2="166" y2="244" stroke="#c0392b" stroke-width="1.6" stroke-linecap="round"/>
<line x1="120" y1="287" x2="110" y2="449" stroke="#c0392b" stroke-width="4" stroke-linecap="round"/>
<line x1="180" y1="287" x2="190" y2="449" stroke="#c0392b" stroke-width="4" stroke-linecap="round"/>
<line x1="115" y1="412" x2="122" y2="418" stroke="#c0392b" stroke-width="1.6" stroke-linecap="round"/>
<line x1="115" y1="418" x2="122" y2="412" stroke="#c0392b" stroke-width="1.6" stroke-linecap="round"/>
<line x1="126" y1="412" x2="132" y2="418" stroke="#c0392b" stroke-width="1.6" stroke-linecap="round"/>
<line x1="126" y1="418" x2="132" y2="412" stroke="#c0392b" stroke-width="1.6" stroke-linecap="round"/>
<line x1="136" y1="412" x2="143" y2="418" stroke="#c0392b" stroke-width="1.6" stroke-linecap="round"/>
<line x1="136" y1="418" x2="143" y2="412" stroke="#c0392b" stroke-width="1.6" stroke-linecap="round"/>
<line x1="146" y1="412" x2="154" y2="418" stroke="#c0392b" stroke-width="1.6" stroke-linecap="round"/>
<line x1="146" y1="418" x2="154" y2="412" stroke="#c0392b" stroke-width="1.6" stroke-linecap="round"/>
<line x1="157" y1="412" x2="164" y2="418" stroke="#c0392b" stroke-width="1.6" stroke-linecap="round"/>
<line x1="157" y1="418" x2="164" y2="412" stroke="#c0392b" stroke-width="1.6" stroke-linecap="round"/>
<line x1="168" y1="412" x2="174" y2="418" stroke="#c0392b" stroke-width="1.6" stroke-linecap="round"/>
<line x1="168" y1="418" x2="174" y2="412" stroke="#c0392b" stroke-width="1.6" stroke-linecap="round"/>
<line x1="178" y1="412" x2="185" y2="418" stroke="#c0392b" stroke-width="1.6" stroke-linecap="round"/>
<line x1="178" y1="418" x2="185" y2="412" stroke="#c0392b" stroke-width="1.6" stroke-linecap="round"/>
<line x1="110" y1="430" x2="117" y2="436" stroke="#c0392b" stroke-width="1.6" stroke-linecap="round"/>
<line x1="110" y1="436" x2="117" y2="430" stroke="#c0392b" stroke-width="1.6" stroke-linecap="round"/>
<line x1="120" y1="430" x2="127" y2="436" stroke="#c0392b" stroke-width="1.6" stroke-linecap="round"/>
<line x1="120" y1="436" x2="127" y2="430" stroke="#c0392b" stroke-width="1.6" stroke-linecap="round"/>
<line x1="131" y1="430" x2="138" y2="436" stroke="#c0392b" stroke-width="1.6" stroke-linecap="round"/>
<line x1="131" y1="436" x2="138" y2="430" stroke="#c0392b" stroke-width="1.6" stroke-linecap="round"/>
<line x1="141" y1="430" x2="148" y2="436" stroke="#c0392b" stroke-width="1.6" stroke-linecap="round"/>
<line x1="141" y1="436" x2="148" y2="430" stroke="#c0392b" stroke-width="1.6" stroke-linecap="round"/>
<line x1="152" y1="430" x2="159" y2="436" stroke="#c0392b" stroke-width="1.6" stroke-linecap="round"/>
<line x1="152" y1="436" x2="159" y2="430" stroke="#c0392b" stroke-width="1.6" stroke-linecap="round"/>
<line x1="162" y1="430" x2="169" y2="436" stroke="#c0392b" stroke-width="1.6" stroke-linecap="round"/>
<line x1="162" y1="436" x2="169" y2="430" stroke="#c0392b" stroke-width="1.6" stroke-linecap="round"/>
<line x1="173" y1="430" x2="180" y2="436" stroke="#c0392b" stroke-width="1.6" stroke-linecap="round"/>
<line x1="173" y1="436" x2="180" y2="430" stroke="#c0392b" stroke-width="1.6" stroke-linecap="round"/>
<line x1="183" y1="430" x2="190" y2="436" stroke="#c0392b" stroke-width="1.6" stroke-linecap="round"/>
<line x1="183" y1="436" x2="190" y2="430" stroke="#c0392b" stroke-width="1.6" stroke-linecap="round"/>
<line x1="120" y1="199" x2="100" y2="305" stroke="#ffffff" stroke-width="20" stroke-linecap="round"/>
<line x1="120" y1="199" x2="100" y2="305" stroke="#1a1a1a" stroke-width="13.0" stroke-linecap="round"/>
<line x1="180" y1="199" x2="200" y2="305" stroke="#ffffff" stroke-width="20" stroke-linecap="round"/>
<line x1="180" y1="199" x2="200" y2="305" stroke="#1a1a1a" stroke-width="13.0" stroke-linecap="round"/>
<circle id="h1" data-fig="fa" class="skin" cx="150" cy="130" r="40" fill="#e0b48c" stroke="#1a1a1a" stroke-width="6"/>
<path d="M 112.0 96.0 Q 150 82.0 188.0 96.0 Q 150 92.0 112.0 96.0 Z" fill="#5a3a1f" stroke="#1a1a1a" stroke-width="3" stroke-linejoin="round"/>
<path d="M 99.0 214 L 99.0 122 Q 99.0 74 150.0 74 Q 201.0 74 201.0 122 L 201.0 214 Q 150.0 228 99.0 214 Z" fill="#f4f3ee" stroke="#1a1a1a" stroke-width="4" stroke-linejoin="round"/>
<ellipse cx="150" cy="136" rx="26" ry="34" fill="#e0b48c" stroke="#1a1a1a" stroke-width="5"/>
<path d="M 332.0 197.0 L 392.0 197.0 L 392.0 287.0 L 418.0 389.0 L 306.0 389.0 L 332.0 287.0 Z" fill="#d6529e" stroke="#1a1a1a" stroke-width="5" stroke-linejoin="round"/>
<line x1="344" y1="389" x2="338" y2="455" stroke="#1a1a1a" stroke-width="13.0" stroke-linecap="round"/>
<line x1="380" y1="389" x2="386" y2="455" stroke="#1a1a1a" stroke-width="13.0" stroke-linecap="round"/>
<ellipse cx="338" cy="457" rx="13" ry="7" fill="#33373d"/>
<ellipse cx="386" cy="457" rx="13" ry="7" fill="#33373d"/>
<line x1="332" y1="199" x2="312" y2="305" stroke="#1a1a1a" stroke-width="13.0" stroke-linecap="round"/>
<line x1="392" y1="199" x2="412" y2="305" stroke="#1a1a1a" stroke-width="13.0" stroke-linecap="round"/>
<line x1="362" y1="197" x2="362" y2="166" stroke="#1a1a1a" stroke-width="13.0" stroke-linecap="round"/>
<path d="M 315.0 184.0 L 315.0 128.0 Q 315.0 76.0 362 76.0 Q 409.0 76.0 409.0 128.0 L 409.0 184.0 L 396.0 184.0 L 396.0 130.0 Q 396.0 96.0 362 96.0 Q 328.0 96.0 328.0 130.0 L 328.0 184.0 Z" fill="#5a3a1f" stroke="#1a1a1a" stroke-width="3" stroke-linejoin="round"/>
<path d="M 328.0 197 L 396.0 197 L 410.0 455 L 314.0 455 Z" fill="#23304a" stroke="#1a1a1a" stroke-width="4" stroke-linejoin="round"/>
<rect x="340" y="215" width="44" height="56" rx="0" fill="#23304a" stroke="#1a1a1a" stroke-width="3"/>
<line x1="346" y1="216" x2="352" y2="222" stroke="#c0392b" stroke-width="1.6" stroke-linecap="round"/>
<line x1="346" y1="222" x2="352" y2="216" stroke="#c0392b" stroke-width="1.6" stroke-linecap="round"/>
<line x1="354" y1="216" x2="360" y2="222" stroke="#c0392b" stroke-width="1.6" stroke-linecap="round"/>
<line x1="354" y1="222" x2="360" y2="216" stroke="#c0392b" stroke-width="1.6" stroke-linecap="round"/>
<line x1="364" y1="216" x2="370" y2="222" stroke="#c0392b" stroke-width="1.6" stroke-linecap="round"/>
<line x1="364" y1="222" x2="370" y2="216" stroke="#c0392b" stroke-width="1.6" stroke-linecap="round"/>
<line x1="372" y1="216" x2="378" y2="222" stroke="#c0392b" stroke-width="1.6" stroke-linecap="round"/>
<line x1="372" y1="222" x2="378" y2="216" stroke="#c0392b" stroke-width="1.6" stroke-linecap="round"/>
<line x1="346" y1="244" x2="352" y2="250" stroke="#c0392b" stroke-width="1.6" stroke-linecap="round"/>
<line x1="346" y1="250" x2="352" y2="244" stroke="#c0392b" stroke-width="1.6" stroke-linecap="round"/>
<line x1="354" y1="244" x2="360" y2="250" stroke="#c0392b" stroke-width="1.6" stroke-linecap="round"/>
<line x1="354" y1="250" x2="360" y2="244" stroke="#c0392b" stroke-width="1.6" stroke-linecap="round"/>
<line x1="364" y1="244" x2="370" y2="250" stroke="#c0392b" stroke-width="1.6" stroke-linecap="round"/>
<line x1="364" y1="250" x2="370" y2="244" stroke="#c0392b" stroke-width="1.6" stroke-linecap="round"/>
<line x1="372" y1="244" x2="378" y2="250" stroke="#c0392b" stroke-width="1.6" stroke-linecap="round"/>
<line x1="372" y1="250" x2="378" y2="244" stroke="#c0392b" stroke-width="1.6" stroke-linecap="round"/>
<line x1="332" y1="287" x2="322" y2="449" stroke="#c0392b" stroke-width="4" stroke-linecap="round"/>
<line x1="392" y1="287" x2="402" y2="449" stroke="#c0392b" stroke-width="4" stroke-linecap="round"/>
<line x1="327" y1="412" x2="334" y2="418" stroke="#c0392b" stroke-width="1.6" stroke-linecap="round"/>
<line x1="327" y1="418" x2="334" y2="412" stroke="#c0392b" stroke-width="1.6" stroke-linecap="round"/>
<line x1="338" y1="412" x2="344" y2="418" stroke="#c0392b" stroke-width="1.6" stroke-linecap="round"/>
<line x1="338" y1="418" x2="344" y2="412" stroke="#c0392b" stroke-width="1.6" stroke-linecap="round"/>
<line x1="348" y1="412" x2="355" y2="418" stroke="#c0392b" stroke-width="1.6" stroke-linecap="round"/>
<line x1="348" y1="418" x2="355" y2="412" stroke="#c0392b" stroke-width="1.6" stroke-linecap="round"/>
<line x1="358" y1="412" x2="366" y2="418" stroke="#c0392b" stroke-width="1.6" stroke-linecap="round"/>
<line x1="358" y1="418" x2="366" y2="412" stroke="#c0392b" stroke-width="1.6" stroke-linecap="round"/>
<line x1="369" y1="412" x2="376" y2="418" stroke="#c0392b" stroke-width="1.6" stroke-linecap="round"/>
<line x1="369" y1="418" x2="376" y2="412" stroke="#c0392b" stroke-width="1.6" stroke-linecap="round"/>
<line x1="380" y1="412" x2="386" y2="418" stroke="#c0392b" stroke-width="1.6" stroke-linecap="round"/>
<line x1="380" y1="418" x2="386" y2="412" stroke="#c0392b" stroke-width="1.6" stroke-linecap="round"/>
<line x1="390" y1="412" x2="397" y2="418" stroke="#c0392b" stroke-width="1.6" stroke-linecap="round"/>
<line x1="390" y1="418" x2="397" y2="412" stroke="#c0392b" stroke-width="1.6" stroke-linecap="round"/>
<line x1="322" y1="430" x2="329" y2="436" stroke="#c0392b" stroke-width="1.6" stroke-linecap="round"/>
<line x1="322" y1="436" x2="329" y2="430" stroke="#c0392b" stroke-width="1.6" stroke-linecap="round"/>
<line x1="332" y1="430" x2="339" y2="436" stroke="#c0392b" stroke-width="1.6" stroke-linecap="round"/>
<line x1="332" y1="436" x2="339" y2="430" stroke="#c0392b" stroke-width="1.6" stroke-linecap="round"/>
<line x1="343" y1="430" x2="350" y2="436" stroke="#c0392b" stroke-width="1.6" stroke-linecap="round"/>
<line x1="343" y1="436" x2="350" y2="430" stroke="#c0392b" stroke-width="1.6" stroke-linecap="round"/>
<line x1="353" y1="430" x2="360" y2="436" stroke="#c0392b" stroke-width="1.6" stroke-linecap="round"/>
<line x1="353" y1="436" x2="360" y2="430" stroke="#c0392b" stroke-width="1.6" stroke-linecap="round"/>
<line x1="364" y1="430" x2="371" y2="436" stroke="#c0392b" stroke-width="1.6" stroke-linecap="round"/>
<line x1="364" y1="436" x2="371" y2="430" stroke="#c0392b" stroke-width="1.6" stroke-linecap="round"/>
<line x1="374" y1="430" x2="381" y2="436" stroke="#c0392b" stroke-width="1.6" stroke-linecap="round"/>
<line x1="374" y1="436" x2="381" y2="430" stroke="#c0392b" stroke-width="1.6" stroke-linecap="round"/>
<line x1="385" y1="430" x2="392" y2="436" stroke="#c0392b" stroke-width="1.6" stroke-linecap="round"/>
<line x1="385" y1="436" x2="392" y2="430" stroke="#c0392b" stroke-width="1.6" stroke-linecap="round"/>
<line x1="395" y1="430" x2="402" y2="436" stroke="#c0392b" stroke-width="1.6" stroke-linecap="round"/>
<line x1="395" y1="436" x2="402" y2="430" stroke="#c0392b" stroke-width="1.6" stroke-linecap="round"/>
<line x1="332" y1="199" x2="312" y2="305" stroke="#ffffff" stroke-width="20" stroke-linecap="round"/>
<line x1="332" y1="199" x2="312" y2="305" stroke="#1a1a1a" stroke-width="13.0" stroke-linecap="round"/>
<line x1="392" y1="199" x2="412" y2="305" stroke="#ffffff" stroke-width="20" stroke-linecap="round"/>
<line x1="392" y1="199" x2="412" y2="305" stroke="#1a1a1a" stroke-width="13.0" stroke-linecap="round"/>
<circle id="h2" data-fig="fa" class="skin" cx="362" cy="130" r="40" fill="#e0b48c" stroke="#1a1a1a" stroke-width="6"/>
<path d="M 324.0 96.0 Q 362 82.0 400.0 96.0 Q 362 92.0 324.0 96.0 Z" fill="#5a3a1f" stroke="#1a1a1a" stroke-width="3" stroke-linejoin="round"/>
<path d="M 311.0 214 L 311.0 122 Q 311.0 74 362.0 74 Q 413.0 74 413.0 122 L 413.0 214 Q 362.0 228 311.0 214 Z" fill="#f4f3ee" stroke="#1a1a1a" stroke-width="4" stroke-linejoin="round"/>
<ellipse cx="362" cy="136" rx="26" ry="34" fill="#e0b48c" stroke="#1a1a1a" stroke-width="5"/>
<line x1="245" y1="345" x2="239" y2="455" stroke="#1a1a1a" stroke-width="12.36" stroke-linecap="round"/>
<line x1="267" y1="345" x2="273" y2="455" stroke="#1a1a1a" stroke-width="12.36" stroke-linecap="round"/>
<ellipse cx="239" cy="457" rx="9" ry="5" fill="#33373d"/>
<ellipse cx="273" cy="457" rx="9" ry="5" fill="#33373d"/>
<polygon points="233,269 279,269 278,347 234,347" fill="#3fb24a" stroke="#1a1a1a" stroke-width="5" stroke-linejoin="round"/>
<polygon points="234,347 278,347 278,376 234,376" fill="#e0473c" stroke="#1a1a1a" stroke-width="5" stroke-linejoin="round"/>
<line x1="234" y1="271" x2="220" y2="347" stroke="#1a1a1a" stroke-width="9.36" stroke-linecap="round"/>
<line x1="278" y1="271" x2="292" y2="347" stroke="#1a1a1a" stroke-width="9.36" stroke-linecap="round"/>
<line x1="256" y1="269" x2="256" y2="246" stroke="#1a1a1a" stroke-width="9.36" stroke-linecap="round"/>
<circle id="h3" data-fig="mc" class="skin" cx="256" cy="221" r="29" fill="#e0b48c" stroke="#1a1a1a" stroke-width="6"/>
<path d="M 227.2 221.0 Q 227.2 182.2 256 182.2 Q 284.8 182.2 284.8 221.0 Q 256 205.2 227.2 221.0 Z" fill="#241c14" stroke="#1a1a1a" stroke-width="3" stroke-linejoin="round"/>
<line x1="200" y1="305" x2="194" y2="305" stroke="#6a737d" stroke-width="7" stroke-linecap="round"/>
<line x1="318" y1="305" x2="312" y2="305" stroke="#6a737d" stroke-width="7" stroke-linecap="round"/>
<path d="M 256 94.0 C 233.0 72.0 245.0 62.0 256 77.0 C 267.0 62.0 279.0 72.0 256 94.0 Z" fill="#e0473c" stroke="#1a1a1a" stroke-width="4" stroke-linejoin="round"/>
</g></svg>
