<svg data-cover="arms:covered" xmlns="http://www.w3.org/2000/svg" viewBox="70.13 52.21 438.30 438.30"><metadata id="sah">{"v":1,"fig":[["h1","fa"]]}</metadata>
<line x1="241" y1="303" x2="232" y2="455" stroke="#39425c" stroke-width="16.0" stroke-linecap="round"/>
<line x1="271" y1="303" x2="280" y2="455" stroke="#39425c" stroke-width="16.0" stroke-linecap="round"/>
<ellipse cx="232" cy="457" rx="13" ry="7" fill="#33373d"/>
<ellipse cx="280" cy="457" rx="13" ry="7" fill="#33373d"/>
<polygon points="224,197 288,197 286,305 226,305" fill="#23304a" stroke="#1a1a1a" stroke-width="5" stroke-linejoin="round"/>
<line x1="226" y1="199" x2="232" y2="267" stroke="#1a1a1a" stroke-width="13.0" stroke-linecap="round"/>
<line x1="286" y1="199" x2="280" y2="267" stroke="#1a1a1a" stroke-width="13.0" stroke-linecap="round"/>
<line x1="256" y1="197" x2="256" y2="166" stroke="#1a1a1a" stroke-width="13.0" stroke-linecap="round"/>
<path d="M 209.0 184.0 L 209.0 128.0 Q 209.0 76.0 256.0 76.0 Q 303.0 76.0 303.0 128.0 L 303.0 184.0 L 290.0 184.0 L 290.0 130.0 Q 290.0 96.0 256.0 96.0 Q 222.0 96.0 222.0 130.0 L 222.0 184.0 Z" fill="#5a3a1f" stroke="#1a1a1a" stroke-width="3"/>
<path d="M 222.0 197 L 290.0 197 L 304.0 455 L 208.0 455 Z" fill="#23304a" stroke="#1a1a1a" stroke-width="4" stroke-linejoin="round"/>
<rect x="234" y="215" width="44" height="56" rx="0" fill="#23304a" stroke="#1a1a1a" stroke-width="3"/>
<line x1="240" y1="216" x2="246" y2="222" stroke="#c0392b" stroke-width="1.6" stroke-linecap="round"/>
<line x1="240" y1="222" x2="246" y2="216" stroke="#c0392b" stroke-width="1.6" stroke-linecap="round"/>
<line x1="248" y1="216" x2="254" y2="222" stroke="#c0392b" stroke-width="1.6" stroke-linecap="round"/>
<line x1="248" y1="222" x2="254" y2="216" stroke="#c0392b" stroke-width="1.6" stroke-linecap="round"/>
<line x1="258" y1="216" x2="264" y2="222" stroke="#c0392b" stroke-width="1.6" stroke-linecap="round"/>
<line x1="258" y1="222" x2="264" y2="216" stroke="#c0392b" stroke-width="1.6" stroke-linecap="round"/>
<line x1="266" y1="216" x2="272" y2="222" stroke="#c0392b" stroke-width="1.6" stroke-linecap="round"/>
<line x1="266" y1="222" x2="272" y2="216" stroke="#c0392b" stroke-width="1.6" stroke-linecap="round"/>
<line x1="240" y1="244" x2="246" y2="250" stroke="#c0392b" stroke-width="1.6" stroke-linecap="round"/>
<line x1="240" y1="250" x2="246" y2="244" stroke="#c0392b" stroke-width="1.6" stroke-linecap="round"/>
<line x1="248" y1="244" x2="254" y2="250" stroke="#c0392b" stroke-width="1.6" stroke-linecap="round"/>
<line x1="248" y1="250" x2="254" y2="244" stroke="#c0392b" stroke-width="1.6" stroke-linecap="round"/>
<line x1="258" y1="244" x2="264" y2="250" stroke="#c0392b" stroke-width="1.6" stroke-linecap="round"/>
<line x1="258" y1="250" x2="264" y2="244" stroke="#c0392b" stroke-width="1.6" stroke-linecap="round"/>
<line x1="266" y1="244" x2="272" y2="250" stroke="#c0392b" stroke-width="1.6" stroke-linecap="round"/>
<line x1="266" y1="250" x2="272" y2="244" stroke="#c0392b" stroke-width="1.6" stroke-linecap="round"/>
<line x1="226" y1="287" x2="216" y2="449" stroke="#c0392b" stroke-width="4" stroke-linecap="round"/>
<line x1="286" y1="287" x2="296" y2="449" stroke="#c0392b" stroke-width="4" stroke-linecap="round"/>
<line x1="221" y1="412" x2="228" y2="418" stroke="#c0392b" stroke-width="1.6" stroke-linecap="round"/>
<line x1="221" y1="418" x2="228" y2="412" stroke="#c0392b" stroke-width="1.6" stroke-linecap="round"/>
<line x1="232" y1="412" x2="238" y2="418" stroke="#c0392b" stroke-width="1.6" stroke-linecap="round"/>
<line x1="232" y1="418" x2="238" y2="412" stroke="#c0392b" stroke-width="1.6" stroke-linecap="round"/>
<line x1="242" y1="412" x2="249" y2="418" stroke="#c0392b" stroke-width="1.6" stroke-linecap="round"/>
<line x1="242" y1="418" x2="249" y2="412" stroke="#c0392b" stroke-width="1.6" stroke-linecap="round"/>
<line x1="252" y1="412" x2="260" y2="418" stroke="#c0392b" stroke-width="1.6" stroke-linecap="round"/>
<line x1="252" y1="418" x2="260" y2="412" stroke="#c0392b" stroke-width="1.6" stroke-linecap="round"/>
<line x1="263" y1="412" x2="270" y2="418" stroke="#c0392b" stroke-width="1.6" stroke-linecap="round"/>
<line x1="263" y1="418" x2="270" y2="412" stroke="#c0392b" stroke-width="1.6" stroke-linecap="round"/>
<line x1="274" y1="412" x2="280" y2="418" stroke="#c0392b" stroke-width="1.6" stroke-linecap="round"/>
<line x1="274" y1="418" x2="280" y2="412" stroke="#c0392b" stroke-width="1.6" stroke-linecap="round"/>
<line x1="284" y1="412" x2="291" y2="418" stroke="#c0392b" stroke-width="1.6" stroke-linecap="round"/>
<line x1="284" y1="418" x2="291" y2="412" stroke="#c0392b" stroke-width="1.6" stroke-linecap="round"/>
<line x1="216" y1="430" x2="223" y2="436" stroke="#c0392b" stroke-width="1.6" stroke-linecap="round"/>
<line x1="216" y1="436" x2="223" y2="430" stroke="#c0392b" stroke-width="1.6" stroke-linecap="round"/>
<line x1="226" y1="430" x2="233" y2="436" stroke="#c0392b" stroke-width="1.6" stroke-linecap="round"/>
<line x1="226" y1="436" x2="233" y2="430" stroke="#c0392b" stroke-width="1.6" stroke-linecap="round"/>
<line x1="237" y1="430" x2="244" y2="436" stroke="#c0392b" stroke-width="1.6" stroke-linecap="round"/>
<line x1="237" y1="436" x2="244" y2="430" stroke="#c0392b" stroke-width="1.6" stroke-linecap="round"/>
<line x1="247" y1="430" x2="254" y2="436" stroke="#c0392b" stroke-width="1.6" stroke-linecap="round"/>
<line x1="247" y1="436" x2="254" y2="430" stroke="#c0392b" stroke-width="1.6" stroke-linecap="round"/>
<line x1="258" y1="430" x2="265" y2="436" stroke="#c0392b" stroke-width="1.6" stroke-linecap="round"/>
<line x1="258" y1="436" x2="265" y2="430" stroke="#c0392b" stroke-width="1.6" stroke-linecap="round"/>
<line x1="268" y1="430" x2="275" y2="436" stroke="#c0392b" stroke-width="1.6" stroke-linecap="round"/>
<line x1="268" y1="436" x2="275" y2="430" stroke="#c0392b" stroke-width="1.6" stroke-linecap="round"/>
<line x1="279" y1="430" x2="286" y2="436" stroke="#c0392b" stroke-width="1.6" stroke-linecap="round"/>
<line x1="279" y1="436" x2="286" y2="430" stroke="#c0392b" stroke-width="1.6" stroke-linecap="round"/>
<line x1="289" y1="430" x2="296" y2="436" stroke="#c0392b" stroke-width="1.6" stroke-linecap="round"/>
<line x1="289" y1="436" x2="296" y2="430" stroke="#c0392b" stroke-width="1.6" stroke-linecap="round"/>
<line x1="226" y1="199" x2="232" y2="267" stroke="#ffffff" stroke-width="20" stroke-linecap="round"/>
<line x1="226" y1="199" x2="232" y2="267" stroke="#1a1a1a" stroke-width="13.0" stroke-linecap="round"/>
<line x1="286" y1="199" x2="280" y2="267" stroke="#ffffff" stroke-width="20" stroke-linecap="round"/>
<line x1="286" y1="199" x2="280" y2="267" stroke="#1a1a1a" stroke-width="13.0" stroke-linecap="round"/>
<circle id="h1" data-fig="fa" class="skin" cx="256" cy="130" r="40" fill="#e0b48c" stroke="#1a1a1a" stroke-width="6"/>
<path d="M 218.0 96.0 Q 256.0 82.0 294.0 96.0 Q 256.0 92.0 218.0 96.0 Z" fill="#5a3a1f" stroke="#1a1a1a" stroke-width="3"/>
<path d="M 205.0 214 L 205.0 122 Q 205.0 74 256.0 74 Q 307.0 74 307.0 122 L 307.0 214 Q 256.0 228 205.0 214 Z" fill="#f4f3ee" stroke="#1a1a1a" stroke-width="4" stroke-linejoin="round"/>
<ellipse cx="256" cy="136" rx="26" ry="34" fill="#e0b48c" stroke="#1a1a1a" stroke-width="5"/>
<polygon points="194,306 294,306 286,242 202,242" fill="#2b3a55" stroke="#1a1a1a" stroke-width="3" stroke-linejoin="round"/>
<rect x="208" y="248" width="72" height="50" rx="0" fill="#eaf4fb" stroke="#1a1a1a" stroke-width="0"/>
<rect x="180" y="306" width="128" height="18" rx="3" fill="#bcc6cf" stroke="#1a1a1a" stroke-width="3"/>
<circle cx="244" cy="282" r="22" fill="#cfe6f0" stroke="#1a1a1a" stroke-width="4"/>
<ellipse cx="244" cy="282" rx="9" ry="22" fill="none" stroke="#3a8fb0" stroke-width="3"/>
<line x1="222" y1="282" x2="266" y2="282" stroke="#3a8fb0" stroke-width="3" stroke-linecap="round"/>
<path d="M 224 273 q 22 -11 40 0" fill="none" stroke="#3a8fb0" stroke-width="3" stroke-linejoin="round"/>
<path d="M 224 291 q 22 11 40 0" fill="none" stroke="#3a8fb0" stroke-width="3" stroke-linejoin="round"/>
<path d="M 360 195 L 399 211 L 399 258 Q 399 294 360 310 Q 321 294 321 258 L 321 211 Z" fill="#2f9e4a" stroke="#1a1a1a" stroke-width="4" stroke-linejoin="round"/>
<line x1="343" y1="250" x2="356" y2="266" stroke="#fff" stroke-width="7.800000000000001" stroke-linecap="round"/>
<line x1="356" y1="266" x2="381" y2="233" stroke="#fff" stroke-width="7.800000000000001" stroke-linecap="round"/>
</svg>
