<svg data-cover="arms:covered" xmlns="http://www.w3.org/2000/svg" viewBox="0 0 512 512" data-copyright="© 2026 Sensory App House"><!--SAH-COPYRIGHT © 2026 Sensory App House. All rights reserved.--><metadata id="sah-copyright"><rdf:RDF xmlns:rdf="http://www.w3.org/1999/02/22-rdf-syntax-ns#" xmlns:dc="http://purl.org/dc/elements/1.1/" xmlns:cc="http://creativecommons.org/ns#"><cc:Work rdf:about=""><dc:rights><cc:Agent><dc:title>© 2026 Sensory App House. All rights reserved.</dc:title></cc:Agent></dc:rights><dc:creator><cc:Agent><dc:title>Sensory App House (PiCom)</dc:title></cc:Agent></dc:creator><dc:date>2026</dc:date></cc:Work></rdf:RDF></metadata><metadata id="sah">{"v":1,"fig":[["h1","ma"]]}</metadata>
<line x1="24" y1="455" x2="488" y2="455" stroke="#9aa7b3" stroke-width="7" stroke-linecap="round"/>
<polygon points="96,473 126,485 96,497" fill="#9aa7b3" stroke="#1a1a1a" stroke-width="0" stroke-linejoin="round"/>
<polygon points="168,473 198,485 168,497" fill="#9aa7b3" stroke="#1a1a1a" stroke-width="0" stroke-linejoin="round"/>
<line x1="221" y1="303" x2="266" y2="455" stroke="#39425c" stroke-width="16.0" stroke-linecap="round"/>
<line x1="251" y1="303" x2="210" y2="455" stroke="#39425c" stroke-width="16.0" stroke-linecap="round"/>
<ellipse cx="266" cy="457" rx="13" ry="7" fill="#33373d"/>
<ellipse cx="210" cy="457" rx="13" ry="7" fill="#33373d"/>
<polygon points="204,197 268,197 266,305 206,305" fill="#2f7d4a" stroke="#1a1a1a" stroke-width="5" stroke-linejoin="round"/>
<line x1="206" y1="199" x2="192" y2="305" stroke="#1a1a1a" stroke-width="13.0" stroke-linecap="round"/>
<line x1="266" y1="199" x2="286" y2="287" stroke="#1a1a1a" stroke-width="13.0" stroke-linecap="round"/>
<line x1="236" y1="197" x2="236" y2="166" stroke="#1a1a1a" stroke-width="13.0" stroke-linecap="round"/>
<path d="M 203.0 197 L 269.0 197 L 267.0 315 L 205.0 315 Z" fill="#e8e4d8" stroke="#1a1a1a" stroke-width="4" stroke-linejoin="round"/>
<path d="M 223.0 199 L 236.0 223 L 249.0 199" fill="none" stroke="#c8c3b4" stroke-width="4" stroke-linejoin="round"/>
<line x1="236" y1="205" x2="236" y2="311" stroke="#c8c3b4" stroke-width="3" stroke-linecap="round"/>
<circle cx="236" cy="215" r="2" fill="#b6b1a2" stroke="#1a1a1a" stroke-width="0"/>
<circle cx="236" cy="229" r="2" fill="#b6b1a2" stroke="#1a1a1a" stroke-width="0"/>
<circle cx="236" cy="243" r="2" fill="#b6b1a2" stroke="#1a1a1a" stroke-width="0"/>
<rect x="206" y="315" width="28" height="136" rx="0" fill="#3a3f47" stroke="#1a1a1a" stroke-width="4"/>
<rect x="238" y="315" width="28" height="136" rx="0" fill="#3a3f47" stroke="#1a1a1a" stroke-width="4"/>
<line x1="204" y1="200" x2="268" y2="200" stroke="#9a9a92" stroke-width="2" stroke-linecap="round"/>
<line x1="186" y1="180" x2="194" y2="220" stroke="#3a3a34" stroke-width="1.6" stroke-linecap="round"/>
<line x1="194" y1="180" x2="202" y2="220" stroke="#3a3a34" stroke-width="1.6" stroke-linecap="round"/>
<line x1="202" y1="180" x2="210" y2="220" stroke="#3a3a34" stroke-width="1.6" stroke-linecap="round"/>
<line x1="210" y1="180" x2="218" y2="220" stroke="#3a3a34" stroke-width="1.6" stroke-linecap="round"/>
<line x1="218" y1="180" x2="226" y2="220" stroke="#3a3a34" stroke-width="1.6" stroke-linecap="round"/>
<line x1="226" y1="180" x2="234" y2="220" stroke="#3a3a34" stroke-width="1.6" stroke-linecap="round"/>
<line x1="234" y1="180" x2="242" y2="220" stroke="#3a3a34" stroke-width="1.6" stroke-linecap="round"/>
<line x1="242" y1="180" x2="250" y2="220" stroke="#3a3a34" stroke-width="1.6" stroke-linecap="round"/>
<line x1="206" y1="199" x2="192" y2="305" stroke="#ffffff" stroke-width="20" stroke-linecap="round"/>
<line x1="206" y1="199" x2="192" y2="305" stroke="#1a1a1a" stroke-width="13.0" stroke-linecap="round"/>
<line x1="266" y1="199" x2="286" y2="287" stroke="#ffffff" stroke-width="20" stroke-linecap="round"/>
<line x1="266" y1="199" x2="286" y2="287" stroke="#1a1a1a" stroke-width="13.0" stroke-linecap="round"/>
<circle id="h1" data-fig="ma" class="skin" cx="236" cy="130" r="40" fill="#e0b48c" stroke="#1a1a1a" stroke-width="6"/>
<path d="M 196.0 130.0 Q 196.0 80.0 236 80.0 Q 276.0 80.0 276.0 130.0 Q 236 103.0 196.0 130.0 Z" fill="#241c14" stroke="#1a1a1a" stroke-width="3" stroke-linejoin="round"/>
<path d="M 194.0 130 Q 170.0 214 204.0 222 L 268.0 222 Q 302.0 214 278.0 130 Z" fill="#f5f5ef" stroke="#1a1a1a" stroke-width="4" stroke-linejoin="round"/>
<circle cx="236" cy="130" r="40" fill="#e0b48c" stroke="#1a1a1a" stroke-width="6"/>
<path d="M 194.0 128 Q 194.0 74 236.0 74 Q 278.0 74 278.0 128 Q 236.0 102 194.0 128 Z" fill="#f5f5ef" stroke="#1a1a1a" stroke-width="4" stroke-linejoin="round"/>
<ellipse cx="236" cy="92" rx="38" ry="9" fill="none" stroke="#2b2b2b" stroke-width="7"/>
<ellipse cx="236" cy="94" rx="38" ry="8" fill="none" stroke="#1a1a1a" stroke-width="6"/>
<line x1="286" y1="287" x2="304" y2="102" stroke="#6b4420" stroke-width="11" stroke-linecap="round"/>
<rect x="286.0" y="90.0" width="36.0" height="16.0" rx="4" fill="#caa015" stroke="#1a1a1a" stroke-width="4"/>
<polygon points="288.0,94 320.0,94 314.0,82 294.0,82" fill="#f0b400" stroke="#1a1a1a" stroke-width="3" stroke-linejoin="round"/>
<path d="M 304.0 82 Q 278.0 54 296.0 26 Q 300.0 44 306.0 38 Q 310.0 18 322.0 44 Q 332.0 62 304.0 82 Z" fill="#f6a800" stroke="#1a1a1a" stroke-width="4" stroke-linejoin="round"/>
<path d="M 304.0 78 Q 292.0 60 302.0 42 Q 308.0 54 312.0 48 Q 316.0 36 304.0 78 Z" fill="#ffe27a" stroke="#1a1a1a" stroke-width="0" stroke-linejoin="round"/>
<line x1="315" y1="16" x2="322" y2="-3" stroke="#f6c500" stroke-width="5" stroke-linecap="round"/>
<line x1="330" y1="30" x2="348" y2="20" stroke="#f6c500" stroke-width="5" stroke-linecap="round"/>
<line x1="333" y1="50" x2="353" y2="54" stroke="#f6c500" stroke-width="5" stroke-linecap="round"/>
</svg>
