<svg data-cover="arms:covered" xmlns="http://www.w3.org/2000/svg" viewBox="56.48 52.21 438.30 438.30"><metadata id="sah">{"v":1,"fig":[["h1","ma"]]}</metadata>
<line x1="155" y1="303" x2="146" y2="455" stroke="#39425c" stroke-width="16.0" stroke-linecap="round"/>
<line x1="185" y1="303" x2="194" y2="455" stroke="#39425c" stroke-width="16.0" stroke-linecap="round"/>
<ellipse cx="146" cy="457" rx="13" ry="7" fill="#33373d"/>
<ellipse cx="194" cy="457" rx="13" ry="7" fill="#33373d"/>
<polygon points="138,197 202,197 200,305 140,305" fill="#e8e4d8" stroke="#1a1a1a" stroke-width="5" stroke-linejoin="round"/>
<line x1="140" y1="199" x2="124" y2="305" stroke="#1a1a1a" stroke-width="13.0" stroke-linecap="round"/>
<line x1="200" y1="199" x2="234" y2="143" stroke="#1a1a1a" stroke-width="13.0" stroke-linecap="round"/>
<line x1="170" y1="197" x2="170" y2="166" stroke="#1a1a1a" stroke-width="13.0" stroke-linecap="round"/>
<path d="M 137.0 197 L 203.0 197 L 201.0 315 L 139.0 315 Z" fill="#e8e4d8" stroke="#1a1a1a" stroke-width="4" stroke-linejoin="round"/>
<path d="M 157.0 199 L 170.0 223 L 183.0 199" fill="none" stroke="#c8c3b4" stroke-width="4" stroke-linejoin="round"/>
<line x1="170" y1="205" x2="170" y2="311" stroke="#c8c3b4" stroke-width="3" stroke-linecap="round"/>
<circle cx="170" cy="215" r="2" fill="#b6b1a2" stroke="#1a1a1a" stroke-width="0"/>
<circle cx="170" cy="229" r="2" fill="#b6b1a2" stroke="#1a1a1a" stroke-width="0"/>
<circle cx="170" cy="243" r="2" fill="#b6b1a2" stroke="#1a1a1a" stroke-width="0"/>
<rect x="140" y="315" width="28" height="136" rx="0" fill="#3a3f47" stroke="#1a1a1a" stroke-width="4"/>
<rect x="172" y="315" width="28" height="136" rx="0" fill="#3a3f47" stroke="#1a1a1a" stroke-width="4"/>
<line x1="138" y1="200" x2="202" y2="200" stroke="#9a9a92" stroke-width="2" stroke-linecap="round"/>
<line x1="120" y1="180" x2="128" y2="220" stroke="#3a3a34" stroke-width="1.6" stroke-linecap="round"/>
<line x1="128" y1="180" x2="136" y2="220" stroke="#3a3a34" stroke-width="1.6" stroke-linecap="round"/>
<line x1="136" y1="180" x2="144" y2="220" stroke="#3a3a34" stroke-width="1.6" stroke-linecap="round"/>
<line x1="144" y1="180" x2="152" y2="220" stroke="#3a3a34" stroke-width="1.6" stroke-linecap="round"/>
<line x1="152" y1="180" x2="160" y2="220" stroke="#3a3a34" stroke-width="1.6" stroke-linecap="round"/>
<line x1="160" y1="180" x2="168" y2="220" stroke="#3a3a34" stroke-width="1.6" stroke-linecap="round"/>
<line x1="168" y1="180" x2="176" y2="220" stroke="#3a3a34" stroke-width="1.6" stroke-linecap="round"/>
<line x1="176" y1="180" x2="184" y2="220" stroke="#3a3a34" stroke-width="1.6" stroke-linecap="round"/>
<line x1="140" y1="199" x2="124" y2="305" stroke="#ffffff" stroke-width="20" stroke-linecap="round"/>
<line x1="140" y1="199" x2="124" y2="305" stroke="#1a1a1a" stroke-width="13.0" stroke-linecap="round"/>
<circle id="h1" data-fig="ma" class="skin" cx="170" cy="130" r="40" fill="#e0b48c" stroke="#1a1a1a" stroke-width="6"/>
<path d="M 130.0 130.0 Q 130.0 80.0 170 80.0 Q 210.0 80.0 210.0 130.0 Q 170 103.0 130.0 130.0 Z" fill="#241c14" stroke="#1a1a1a" stroke-width="3" stroke-linejoin="round"/>
<path d="M 128.0 130 Q 104.0 214 138.0 222 L 202.0 222 Q 236.0 214 212.0 130 Z" fill="#f5f5ef" stroke="#1a1a1a" stroke-width="4" stroke-linejoin="round"/>
<circle cx="170" cy="130" r="40" fill="#e0b48c" stroke="#1a1a1a" stroke-width="6"/>
<path d="M 128.0 128 Q 128.0 74 170.0 74 Q 212.0 74 212.0 128 Q 170.0 102 128.0 128 Z" fill="#f5f5ef" stroke="#1a1a1a" stroke-width="4" stroke-linejoin="round"/>
<ellipse cx="170" cy="92" rx="38" ry="9" fill="none" stroke="#2b2b2b" stroke-width="7"/>
<ellipse cx="170" cy="94" rx="38" ry="8" fill="none" stroke="#1a1a1a" stroke-width="6"/>
<rect x="300" y="129" width="132" height="150" rx="6" fill="#ffffff" stroke="#1a1a1a" stroke-width="4"/>
<line x1="308" y1="147" x2="321" y2="163" stroke="#1a1a1a" stroke-width="16.0" stroke-linecap="round"/><line x1="321" y1="163" x2="348" y2="129" stroke="#1a1a1a" stroke-width="16.0" stroke-linecap="round"/><line x1="308" y1="187" x2="321" y2="203" stroke="#1a1a1a" stroke-width="16.0" stroke-linecap="round"/><line x1="321" y1="203" x2="348" y2="169" stroke="#1a1a1a" stroke-width="16.0" stroke-linecap="round"/><line x1="308" y1="227" x2="321" y2="243" stroke="#1a1a1a" stroke-width="16.0" stroke-linecap="round"/><line x1="321" y1="243" x2="348" y2="209" stroke="#1a1a1a" stroke-width="16.0" stroke-linecap="round"/><line x1="308" y1="147" x2="321" y2="163" stroke="#2f9e4a" stroke-width="10.5" stroke-linecap="round"/>
<line x1="321" y1="163" x2="348" y2="129" stroke="#2f9e4a" stroke-width="10.5" stroke-linecap="round"/>
<line x1="354" y1="155" x2="416" y2="155" stroke="#5a6a8a" stroke-width="6" stroke-linecap="round"/>
<line x1="308" y1="187" x2="321" y2="203" stroke="#2f9e4a" stroke-width="10.5" stroke-linecap="round"/>
<line x1="321" y1="203" x2="348" y2="169" stroke="#2f9e4a" stroke-width="10.5" stroke-linecap="round"/>
<line x1="354" y1="195" x2="416" y2="195" stroke="#5a6a8a" stroke-width="6" stroke-linecap="round"/>
<line x1="308" y1="227" x2="321" y2="243" stroke="#2f9e4a" stroke-width="10.5" stroke-linecap="round"/>
<line x1="321" y1="243" x2="348" y2="209" stroke="#2f9e4a" stroke-width="10.5" stroke-linecap="round"/>
<line x1="354" y1="235" x2="416" y2="235" stroke="#5a6a8a" stroke-width="6" stroke-linecap="round"/>
</svg>
