<svg data-cover="arms:covered" xmlns="http://www.w3.org/2000/svg" viewBox="0 0 512 512" data-copyright="© 2026 Sensory App House"><!--SAH-COPYRIGHT © 2026 Sensory App House. All rights reserved.--><metadata id="sah-copyright"><rdf:RDF xmlns:rdf="http://www.w3.org/1999/02/22-rdf-syntax-ns#" xmlns:dc="http://purl.org/dc/elements/1.1/" xmlns:cc="http://creativecommons.org/ns#"><cc:Work rdf:about=""><dc:rights><cc:Agent><dc:title>© 2026 Sensory App House. All rights reserved.</dc:title></cc:Agent></dc:rights><dc:creator><cc:Agent><dc:title>Sensory App House (PiCom)</dc:title></cc:Agent></dc:creator><dc:date>2026</dc:date></cc:Work></rdf:RDF></metadata><metadata id="sah">{"v":1,"fig":[["h1","ma"]]}</metadata><g data-fit="1" transform="translate(256 256) scale(1.0989) translate(-220.00 -271.00)">
<g transform="translate(-13.9,62.9) scale(1.064)"><!-- Vampire bat with fangs -->
  <!-- wings -->
  <path d="M30 180 Q70 130 100 170 Q120 140 140 165 L140 250 Q90 240 60 270 Q55 230 30 230 Z"
        fill="#4a148c" stroke="#1a1a1a" stroke-width="5" stroke-linejoin="round"/>
  <path d="M250 180 Q210 130 180 170 Q160 140 140 165 L140 250 Q190 240 220 270 Q225 230 250 230 Z"
        fill="#4a148c" stroke="#1a1a1a" stroke-width="5" stroke-linejoin="round"/>
  <!-- body/head -->
  <circle cx="140" cy="185" r="52" fill="#311b92" stroke="#1a1a1a" stroke-width="5"/>
  <!-- ears -->
  <polygon points="108,150 118,110 132,148" fill="#311b92" stroke="#1a1a1a" stroke-width="5" stroke-linejoin="round"/>
  <polygon points="172,150 162,110 148,148" fill="#311b92" stroke="#1a1a1a" stroke-width="5" stroke-linejoin="round"/>
  <!-- eyes -->
  <circle cx="122" cy="178" r="9" fill="#ff5252"/>
  <circle cx="158" cy="178" r="9" fill="#ff5252"/>
  <!-- fangs -->
  <polygon points="128,200 136,200 132,222" fill="#ffffff" stroke="#1a1a1a" stroke-width="3"/>
  <polygon points="148,200 156,200 152,222" fill="#ffffff" stroke="#1a1a1a" stroke-width="3"/></g>
<line x1="353" y1="303" x2="344" y2="455" stroke="#39425c" stroke-width="16.0" stroke-linecap="round"/>
<line x1="383" y1="303" x2="392" y2="455" stroke="#39425c" stroke-width="16.0" stroke-linecap="round"/>
<ellipse cx="344" cy="457" rx="13" ry="7" fill="#33373d"/>
<ellipse cx="392" cy="457" rx="13" ry="7" fill="#33373d"/>
<polygon points="336,197 400,197 398,305 338,305" fill="#e8e4d8" stroke="#1a1a1a" stroke-width="5" stroke-linejoin="round"/>
<line x1="338" y1="199" x2="318" y2="305" stroke="#1a1a1a" stroke-width="13.0" stroke-linecap="round"/>
<line x1="398" y1="199" x2="418" y2="305" stroke="#1a1a1a" stroke-width="13.0" stroke-linecap="round"/>
<line x1="368" y1="197" x2="368" y2="166" stroke="#1a1a1a" stroke-width="13.0" stroke-linecap="round"/>
<path d="M 335.0 197 L 401.0 197 L 399.0 315 L 337.0 315 Z" fill="#e8e4d8" stroke="#1a1a1a" stroke-width="4" stroke-linejoin="round"/>
<path d="M 355.0 199 L 368.0 223 L 381.0 199" fill="none" stroke="#c8c3b4" stroke-width="4" stroke-linejoin="round"/>
<line x1="368" y1="205" x2="368" y2="311" stroke="#c8c3b4" stroke-width="3" stroke-linecap="round"/>
<circle cx="368" cy="215" r="2" fill="#b6b1a2" stroke="#1a1a1a" stroke-width="0"/>
<circle cx="368" cy="229" r="2" fill="#b6b1a2" stroke="#1a1a1a" stroke-width="0"/>
<circle cx="368" cy="243" r="2" fill="#b6b1a2" stroke="#1a1a1a" stroke-width="0"/>
<rect x="338" y="315" width="28" height="136" rx="0" fill="#3a3f47" stroke="#1a1a1a" stroke-width="4"/>
<rect x="370" y="315" width="28" height="136" rx="0" fill="#3a3f47" stroke="#1a1a1a" stroke-width="4"/>
<line x1="336" y1="200" x2="400" y2="200" stroke="#9a9a92" stroke-width="2" stroke-linecap="round"/>
<line x1="318" y1="180" x2="326" y2="220" stroke="#3a3a34" stroke-width="1.6" stroke-linecap="round"/>
<line x1="326" y1="180" x2="334" y2="220" stroke="#3a3a34" stroke-width="1.6" stroke-linecap="round"/>
<line x1="334" y1="180" x2="342" y2="220" stroke="#3a3a34" stroke-width="1.6" stroke-linecap="round"/>
<line x1="342" y1="180" x2="350" y2="220" stroke="#3a3a34" stroke-width="1.6" stroke-linecap="round"/>
<line x1="350" y1="180" x2="358" y2="220" stroke="#3a3a34" stroke-width="1.6" stroke-linecap="round"/>
<line x1="358" y1="180" x2="366" y2="220" stroke="#3a3a34" stroke-width="1.6" stroke-linecap="round"/>
<line x1="366" y1="180" x2="374" y2="220" stroke="#3a3a34" stroke-width="1.6" stroke-linecap="round"/>
<line x1="374" y1="180" x2="382" y2="220" stroke="#3a3a34" stroke-width="1.6" stroke-linecap="round"/>
<line x1="338" y1="199" x2="318" y2="305" stroke="#ffffff" stroke-width="20" stroke-linecap="round"/>
<line x1="338" y1="199" x2="318" y2="305" stroke="#1a1a1a" stroke-width="13.0" stroke-linecap="round"/>
<line x1="398" y1="199" x2="418" y2="305" stroke="#ffffff" stroke-width="20" stroke-linecap="round"/>
<line x1="398" y1="199" x2="418" y2="305" stroke="#1a1a1a" stroke-width="13.0" stroke-linecap="round"/>
<circle id="h1" data-fig="ma" cx="368" cy="130" r="40" fill="#e0b48c" stroke="#1a1a1a" stroke-width="6" class="skin"/>
<path d="M 328.0 130.0 Q 328.0 80.0 368 80.0 Q 408.0 80.0 408.0 130.0 Q 368 103.0 328.0 130.0 Z" fill="#241c14" stroke="#1a1a1a" stroke-width="3" stroke-linejoin="round"/>
<path d="M 326.0 130 Q 302.0 214 336.0 222 L 400.0 222 Q 434.0 214 410.0 130 Z" fill="#f5f5ef" stroke="#1a1a1a" stroke-width="4" stroke-linejoin="round"/>
<circle cx="368" cy="130" r="40" fill="#e0b48c" stroke="#1a1a1a" stroke-width="6"/>
<path d="M 326.0 128 Q 326.0 74 368.0 74 Q 410.0 74 410.0 128 Q 368.0 102 326.0 128 Z" fill="#f5f5ef" stroke="#1a1a1a" stroke-width="4" stroke-linejoin="round"/>
<ellipse cx="368" cy="92" rx="38" ry="9" fill="none" stroke="#2b2b2b" stroke-width="7"/>
<ellipse cx="368" cy="94" rx="38" ry="8" fill="none" stroke="#1a1a1a" stroke-width="6"/>
</g></svg>
