<svg data-cover="arms:covered" xmlns="http://www.w3.org/2000/svg" viewBox="0 0 512 512" data-copyright="© 2026 Sensory App House"><!--SAH-COPYRIGHT © 2026 Sensory App House. All rights reserved.--><metadata id="sah-copyright"><rdf:RDF xmlns:rdf="http://www.w3.org/1999/02/22-rdf-syntax-ns#" xmlns:dc="http://purl.org/dc/elements/1.1/" xmlns:cc="http://creativecommons.org/ns#"><cc:Work rdf:about=""><dc:rights><cc:Agent><dc:title>© 2026 Sensory App House. All rights reserved.</dc:title></cc:Agent></dc:rights><dc:creator><cc:Agent><dc:title>Sensory App House (PiCom)</dc:title></cc:Agent></dc:creator><dc:date>2026</dc:date></cc:Work></rdf:RDF></metadata><metadata id="sah">{"v":1,"fig":[["h1","fa"],["h2","ma"]]}</metadata><g data-fit="1" transform="translate(256 256) scale(1.1553) translate(-285.50 -266.00)">
<path d="M 160.0 194.0 L 220.0 194.0 L 220.0 284.0 L 246.0 386.0 L 134.0 386.0 L 160.0 284.0 Z" fill="#cc5544" stroke="#1a1a1a" stroke-width="5" stroke-linejoin="round"/>
<line x1="172" y1="386" x2="166" y2="452" stroke="#1a1a1a" stroke-width="13.0" stroke-linecap="round"/>
<line x1="208" y1="386" x2="214" y2="452" stroke="#1a1a1a" stroke-width="13.0" stroke-linecap="round"/>
<ellipse cx="166" cy="454" rx="13" ry="7" fill="#33373d"/>
<ellipse cx="214" cy="454" rx="13" ry="7" fill="#33373d"/>
<line x1="160" y1="196" x2="166" y2="264" stroke="#1a1a1a" stroke-width="13.0" stroke-linecap="round"/>
<line x1="220" y1="196" x2="214" y2="264" stroke="#1a1a1a" stroke-width="13.0" stroke-linecap="round"/>
<line x1="190" y1="194" x2="190" y2="163" stroke="#1a1a1a" stroke-width="13.0" stroke-linecap="round"/>
<path d="M 143.0 181.0 L 143.0 125.0 Q 143.0 73.0 190 73.0 Q 237.0 73.0 237.0 125.0 L 237.0 181.0 L 224.0 181.0 L 224.0 127.0 Q 224.0 93.0 190 93.0 Q 156.0 93.0 156.0 127.0 L 156.0 181.0 Z" fill="#5a3a1f" stroke="#1a1a1a" stroke-width="3" stroke-linejoin="round"/>
<g transform="translate(0,-3)"><path d="M 156.0 197 L 224.0 197 L 238.0 455 L 142.0 455 Z" fill="#23304a" stroke="#1a1a1a" stroke-width="4" stroke-linejoin="round"/>
<rect x="168" y="215" width="44" height="56" rx="0" fill="#23304a" stroke="#1a1a1a" stroke-width="3"/>
<line x1="174" y1="216" x2="180" y2="222" stroke="#c0392b" stroke-width="1.6" stroke-linecap="round"/>
<line x1="174" y1="222" x2="180" y2="216" stroke="#c0392b" stroke-width="1.6" stroke-linecap="round"/>
<line x1="182" y1="216" x2="188" y2="222" stroke="#c0392b" stroke-width="1.6" stroke-linecap="round"/>
<line x1="182" y1="222" x2="188" y2="216" stroke="#c0392b" stroke-width="1.6" stroke-linecap="round"/>
<line x1="192" y1="216" x2="198" y2="222" stroke="#c0392b" stroke-width="1.6" stroke-linecap="round"/>
<line x1="192" y1="222" x2="198" y2="216" stroke="#c0392b" stroke-width="1.6" stroke-linecap="round"/>
<line x1="200" y1="216" x2="206" y2="222" stroke="#c0392b" stroke-width="1.6" stroke-linecap="round"/>
<line x1="200" y1="222" x2="206" y2="216" stroke="#c0392b" stroke-width="1.6" stroke-linecap="round"/>
<line x1="174" y1="244" x2="180" y2="250" stroke="#c0392b" stroke-width="1.6" stroke-linecap="round"/>
<line x1="174" y1="250" x2="180" y2="244" stroke="#c0392b" stroke-width="1.6" stroke-linecap="round"/>
<line x1="182" y1="244" x2="188" y2="250" stroke="#c0392b" stroke-width="1.6" stroke-linecap="round"/>
<line x1="182" y1="250" x2="188" y2="244" stroke="#c0392b" stroke-width="1.6" stroke-linecap="round"/>
<line x1="192" y1="244" x2="198" y2="250" stroke="#c0392b" stroke-width="1.6" stroke-linecap="round"/>
<line x1="192" y1="250" x2="198" y2="244" stroke="#c0392b" stroke-width="1.6" stroke-linecap="round"/>
<line x1="200" y1="244" x2="206" y2="250" stroke="#c0392b" stroke-width="1.6" stroke-linecap="round"/>
<line x1="200" y1="250" x2="206" y2="244" stroke="#c0392b" stroke-width="1.6" stroke-linecap="round"/>
<line x1="160" y1="287" x2="150" y2="449" stroke="#c0392b" stroke-width="4" stroke-linecap="round"/>
<line x1="220" y1="287" x2="230" y2="449" stroke="#c0392b" stroke-width="4" stroke-linecap="round"/>
<line x1="155" y1="412" x2="162" y2="418" stroke="#c0392b" stroke-width="1.6" stroke-linecap="round"/>
<line x1="155" y1="418" x2="162" y2="412" stroke="#c0392b" stroke-width="1.6" stroke-linecap="round"/>
<line x1="166" y1="412" x2="172" y2="418" stroke="#c0392b" stroke-width="1.6" stroke-linecap="round"/>
<line x1="166" y1="418" x2="172" y2="412" stroke="#c0392b" stroke-width="1.6" stroke-linecap="round"/>
<line x1="176" y1="412" x2="183" y2="418" stroke="#c0392b" stroke-width="1.6" stroke-linecap="round"/>
<line x1="176" y1="418" x2="183" y2="412" stroke="#c0392b" stroke-width="1.6" stroke-linecap="round"/>
<line x1="186" y1="412" x2="194" y2="418" stroke="#c0392b" stroke-width="1.6" stroke-linecap="round"/>
<line x1="186" y1="418" x2="194" y2="412" stroke="#c0392b" stroke-width="1.6" stroke-linecap="round"/>
<line x1="197" y1="412" x2="204" y2="418" stroke="#c0392b" stroke-width="1.6" stroke-linecap="round"/>
<line x1="197" y1="418" x2="204" y2="412" stroke="#c0392b" stroke-width="1.6" stroke-linecap="round"/>
<line x1="208" y1="412" x2="214" y2="418" stroke="#c0392b" stroke-width="1.6" stroke-linecap="round"/>
<line x1="208" y1="418" x2="214" y2="412" stroke="#c0392b" stroke-width="1.6" stroke-linecap="round"/>
<line x1="218" y1="412" x2="225" y2="418" stroke="#c0392b" stroke-width="1.6" stroke-linecap="round"/>
<line x1="218" y1="418" x2="225" y2="412" stroke="#c0392b" stroke-width="1.6" stroke-linecap="round"/>
<line x1="150" y1="430" x2="157" y2="436" stroke="#c0392b" stroke-width="1.6" stroke-linecap="round"/>
<line x1="150" y1="436" x2="157" y2="430" stroke="#c0392b" stroke-width="1.6" stroke-linecap="round"/>
<line x1="160" y1="430" x2="167" y2="436" stroke="#c0392b" stroke-width="1.6" stroke-linecap="round"/>
<line x1="160" y1="436" x2="167" y2="430" stroke="#c0392b" stroke-width="1.6" stroke-linecap="round"/>
<line x1="171" y1="430" x2="178" y2="436" stroke="#c0392b" stroke-width="1.6" stroke-linecap="round"/>
<line x1="171" y1="436" x2="178" y2="430" stroke="#c0392b" stroke-width="1.6" stroke-linecap="round"/>
<line x1="181" y1="430" x2="188" y2="436" stroke="#c0392b" stroke-width="1.6" stroke-linecap="round"/>
<line x1="181" y1="436" x2="188" y2="430" stroke="#c0392b" stroke-width="1.6" stroke-linecap="round"/>
<line x1="192" y1="430" x2="199" y2="436" stroke="#c0392b" stroke-width="1.6" stroke-linecap="round"/>
<line x1="192" y1="436" x2="199" y2="430" stroke="#c0392b" stroke-width="1.6" stroke-linecap="round"/>
<line x1="202" y1="430" x2="209" y2="436" stroke="#c0392b" stroke-width="1.6" stroke-linecap="round"/>
<line x1="202" y1="436" x2="209" y2="430" stroke="#c0392b" stroke-width="1.6" stroke-linecap="round"/>
<line x1="213" y1="430" x2="220" y2="436" stroke="#c0392b" stroke-width="1.6" stroke-linecap="round"/>
<line x1="213" y1="436" x2="220" y2="430" stroke="#c0392b" stroke-width="1.6" stroke-linecap="round"/>
<line x1="223" y1="430" x2="230" y2="436" stroke="#c0392b" stroke-width="1.6" stroke-linecap="round"/>
<line x1="223" y1="436" x2="230" y2="430" stroke="#c0392b" stroke-width="1.6" stroke-linecap="round"/></g>
<line x1="160" y1="196" x2="166" y2="264" stroke="#ffffff" stroke-width="20" stroke-linecap="round"/>
<line x1="160" y1="196" x2="166" y2="264" stroke="#1a1a1a" stroke-width="13.0" stroke-linecap="round"/>
<line x1="220" y1="196" x2="214" y2="264" stroke="#ffffff" stroke-width="20" stroke-linecap="round"/>
<line x1="220" y1="196" x2="214" y2="264" stroke="#1a1a1a" stroke-width="13.0" stroke-linecap="round"/>
<circle id="h1" data-fig="fa" class="skin" cx="190" cy="127" r="40" fill="#e0b48c" stroke="#1a1a1a" stroke-width="6"/>
<path d="M 152.0 93.0 Q 190 79.0 228.0 93.0 Q 190 89.0 152.0 93.0 Z" fill="#5a3a1f" stroke="#1a1a1a" stroke-width="3" stroke-linejoin="round"/>
<g transform="translate(0,-3)"><path d="M 139.0 214 L 139.0 122 Q 139.0 74 190.0 74 Q 241.0 74 241.0 122 L 241.0 214 Q 190.0 228 139.0 214 Z" fill="#f4f3ee" stroke="#1a1a1a" stroke-width="4" stroke-linejoin="round"/>
<ellipse cx="190" cy="136" rx="26" ry="34" fill="#e0b48c" stroke="#1a1a1a" stroke-width="5"/></g>
<rect x="150" y="320" width="150" height="14" rx="3" fill="#cdd3da" stroke="#1a1a1a" stroke-width="3"/>
<line x1="160" y1="334" x2="160" y2="452" stroke="#7a4a24" stroke-width="7" stroke-linecap="round"/>
<line x1="290" y1="334" x2="290" y2="452" stroke="#7a4a24" stroke-width="7" stroke-linecap="round"/>
<polygon points="172,304 232,304 226,270 178,270" fill="#2b3a55" stroke="#1a1a1a" stroke-width="3" stroke-linejoin="round"/>
<rect x="180" y="274" width="40" height="26" rx="0" fill="#7ec8f0" stroke="#1a1a1a" stroke-width="0"/>
<rect x="160" y="304" width="84" height="16" rx="2" fill="#bcc6cf" stroke="#1a1a1a" stroke-width="3"/>
<line x1="325" y1="300" x2="316" y2="452" stroke="#39425c" stroke-width="16.0" stroke-linecap="round"/>
<line x1="355" y1="300" x2="364" y2="452" stroke="#39425c" stroke-width="16.0" stroke-linecap="round"/>
<ellipse cx="316" cy="454" rx="13" ry="7" fill="#33373d"/>
<ellipse cx="364" cy="454" rx="13" ry="7" fill="#33373d"/>
<polygon points="308,194 372,194 370,302 310,302" fill="#3d8a6b" stroke="#1a1a1a" stroke-width="5" stroke-linejoin="round"/>
<line x1="310" y1="196" x2="294" y2="302" stroke="#1a1a1a" stroke-width="13.0" stroke-linecap="round"/>
<line x1="370" y1="196" x2="418" y2="218" stroke="#1a1a1a" stroke-width="13.0" stroke-linecap="round"/>
<line x1="340" y1="194" x2="340" y2="163" stroke="#1a1a1a" stroke-width="13.0" stroke-linecap="round"/>
<g transform="translate(0,-3)"><path d="M 307.0 197 L 373.0 197 L 371.0 315 L 309.0 315 Z" fill="#e8e4d8" stroke="#1a1a1a" stroke-width="4" stroke-linejoin="round"/>
<path d="M 327.0 199 L 340.0 223 L 353.0 199" fill="none" stroke="#c8c3b4" stroke-width="4" stroke-linejoin="round"/>
<line x1="340" y1="205" x2="340" y2="311" stroke="#c8c3b4" stroke-width="3" stroke-linecap="round"/>
<circle cx="340" cy="215" r="2" fill="#b6b1a2" stroke="#1a1a1a" stroke-width="0"/>
<circle cx="340" cy="229" r="2" fill="#b6b1a2" stroke="#1a1a1a" stroke-width="0"/>
<circle cx="340" cy="243" r="2" fill="#b6b1a2" stroke="#1a1a1a" stroke-width="0"/>
<rect x="310" y="315" width="28" height="136" rx="0" fill="#3a3f47" stroke="#1a1a1a" stroke-width="4"/>
<rect x="342" y="315" width="28" height="136" rx="0" fill="#3a3f47" stroke="#1a1a1a" stroke-width="4"/>
<line x1="308" y1="200" x2="372" y2="200" stroke="#9a9a92" stroke-width="2" stroke-linecap="round"/>
<line x1="290" y1="180" x2="298" y2="220" stroke="#3a3a34" stroke-width="1.6" stroke-linecap="round"/>
<line x1="298" y1="180" x2="306" y2="220" stroke="#3a3a34" stroke-width="1.6" stroke-linecap="round"/>
<line x1="306" y1="180" x2="314" y2="220" stroke="#3a3a34" stroke-width="1.6" stroke-linecap="round"/>
<line x1="314" y1="180" x2="322" y2="220" stroke="#3a3a34" stroke-width="1.6" stroke-linecap="round"/>
<line x1="322" y1="180" x2="330" y2="220" stroke="#3a3a34" stroke-width="1.6" stroke-linecap="round"/>
<line x1="330" y1="180" x2="338" y2="220" stroke="#3a3a34" stroke-width="1.6" stroke-linecap="round"/>
<line x1="338" y1="180" x2="346" y2="220" stroke="#3a3a34" stroke-width="1.6" stroke-linecap="round"/>
<line x1="346" y1="180" x2="354" y2="220" stroke="#3a3a34" stroke-width="1.6" stroke-linecap="round"/></g>
<line x1="310" y1="196" x2="294" y2="302" stroke="#ffffff" stroke-width="20" stroke-linecap="round"/>
<line x1="310" y1="196" x2="294" y2="302" stroke="#1a1a1a" stroke-width="13.0" stroke-linecap="round"/>
<line x1="370" y1="196" x2="418" y2="218" stroke="#ffffff" stroke-width="20" stroke-linecap="round"/>
<line x1="370" y1="196" x2="418" y2="218" stroke="#1a1a1a" stroke-width="13.0" stroke-linecap="round"/>
<line x1="310" y1="196" x2="250" y2="284" stroke="#ffffff" stroke-width="22" stroke-linecap="round"/>
<line x1="310" y1="196" x2="250" y2="284" stroke="#1a1a1a" stroke-width="15.0" stroke-linecap="round"/>
<line x1="310" y1="196" x2="250" y2="284" stroke="#ffffff" stroke-width="16" stroke-linecap="round"/>
<line x1="310" y1="196" x2="250" y2="284" stroke="#3d8a6b" stroke-width="9.5" stroke-linecap="round"/>
<circle id="h2" data-fig="ma" class="skin" cx="340" cy="127" r="40" fill="#e0b48c" stroke="#1a1a1a" stroke-width="6"/>
<path d="M 300.0 127.0 Q 300.0 77.0 340 77.0 Q 380.0 77.0 380.0 127.0 Q 340 100.0 300.0 127.0 Z" fill="#241c14" stroke="#1a1a1a" stroke-width="3" stroke-linejoin="round"/>
<g transform="translate(0,-3)"><path d="M 298.0 130 Q 274.0 214 308.0 222 L 372.0 222 Q 406.0 214 382.0 130 Z" fill="#f5f5ef" stroke="#1a1a1a" stroke-width="4" stroke-linejoin="round"/>
<circle cx="340" cy="130" r="40" fill="#e0b48c" stroke="#1a1a1a" stroke-width="6"/>
<path d="M 298.0 128 Q 298.0 74 340.0 74 Q 382.0 74 382.0 128 Q 340.0 102 298.0 128 Z" fill="#f5f5ef" stroke="#1a1a1a" stroke-width="4" stroke-linejoin="round"/>
<ellipse cx="340" cy="92" rx="38" ry="9" fill="none" stroke="#2b2b2b" stroke-width="7"/>
<ellipse cx="340" cy="94" rx="38" ry="8" fill="none" stroke="#1a1a1a" stroke-width="6"/></g>
<circle cx="327" cy="124" r="4" fill="#1a1a1a" stroke="#1a1a1a" stroke-width="0"/>
<circle cx="353" cy="124" r="4" fill="#1a1a1a" stroke="#1a1a1a" stroke-width="0"/>
<path d="M 326.0 141.0 Q 340 157.0 354.0 141.0" fill="none" stroke="#1a1a1a" stroke-width="4" stroke-linejoin="round"/>
<line x1="310" y1="196" x2="250" y2="284" stroke="#1a1a1a" stroke-width="15.0" stroke-linecap="round"/><line x1="394" y1="120" x2="434" y2="120" stroke="#1a1a1a" stroke-width="18.0" stroke-linecap="round"/><line x1="414" y1="100" x2="414" y2="140" stroke="#1a1a1a" stroke-width="18.0" stroke-linecap="round"/><line x1="310" y1="196" x2="250" y2="284" stroke="#3d8a6b" stroke-width="9.5" stroke-linecap="round"/>

<line x1="394" y1="120" x2="434" y2="120" stroke="#2f9e4a" stroke-width="12.5" stroke-linecap="round"/>
<line x1="414" y1="100" x2="414" y2="140" stroke="#2f9e4a" stroke-width="12.5" stroke-linecap="round"/>
</g></svg>
