<svg data-cover="arms:covered" xmlns="http://www.w3.org/2000/svg" viewBox="0 0 512 512" data-copyright="© 2026 Sensory App House"><!--SAH-COPYRIGHT © 2026 Sensory App House. All rights reserved.--><metadata id="sah-copyright"><rdf:RDF xmlns:rdf="http://www.w3.org/1999/02/22-rdf-syntax-ns#" xmlns:dc="http://purl.org/dc/elements/1.1/" xmlns:cc="http://creativecommons.org/ns#"><cc:Work rdf:about=""><dc:rights><cc:Agent><dc:title>© 2026 Sensory App House. All rights reserved.</dc:title></cc:Agent></dc:rights><dc:creator><cc:Agent><dc:title>Sensory App House (PiCom)</dc:title></cc:Agent></dc:creator><dc:date>2026</dc:date></cc:Work></rdf:RDF></metadata><metadata id="sah">{"v":1,"fig":[["h1","ma"],["h2","mc"],["h3","fa"],["h4","ma"]]}</metadata><g data-fit="1" transform="translate(256 256) scale(1.0310) translate(-257.50 -269.00)">
<line x1="81" y1="303" x2="72" y2="455" stroke="#39425c" stroke-width="16.0" stroke-linecap="round"/>
<line x1="111" y1="303" x2="120" y2="455" stroke="#39425c" stroke-width="16.0" stroke-linecap="round"/>
<ellipse cx="72" cy="457" rx="13" ry="7" fill="#33373d"/>
<ellipse cx="120" cy="457" rx="13" ry="7" fill="#33373d"/>
<polygon points="64,197 128,197 126,305 66,305" fill="#e8e4d8" stroke="#1a1a1a" stroke-width="5" stroke-linejoin="round"/>
<line x1="66" y1="199" x2="46" y2="305" stroke="#1a1a1a" stroke-width="13.0" stroke-linecap="round"/>
<line x1="126" y1="199" x2="146" y2="305" stroke="#1a1a1a" stroke-width="13.0" stroke-linecap="round"/>
<line x1="96" y1="197" x2="96" y2="166" stroke="#1a1a1a" stroke-width="13.0" stroke-linecap="round"/>
<path d="M 63.0 197 L 129.0 197 L 127.0 315 L 65.0 315 Z" fill="#e8e4d8" stroke="#1a1a1a" stroke-width="4" stroke-linejoin="round"/>
<path d="M 83.0 199 L 96.0 223 L 109.0 199" fill="none" stroke="#c8c3b4" stroke-width="4" stroke-linejoin="round"/>
<line x1="96" y1="205" x2="96" y2="311" stroke="#c8c3b4" stroke-width="3" stroke-linecap="round"/>
<circle cx="96" cy="215" r="2" fill="#b6b1a2" stroke="#1a1a1a" stroke-width="0"/>
<circle cx="96" cy="229" r="2" fill="#b6b1a2" stroke="#1a1a1a" stroke-width="0"/>
<circle cx="96" cy="243" r="2" fill="#b6b1a2" stroke="#1a1a1a" stroke-width="0"/>
<rect x="66" y="315" width="28" height="136" rx="0" fill="#3a3f47" stroke="#1a1a1a" stroke-width="4"/>
<rect x="98" y="315" width="28" height="136" rx="0" fill="#3a3f47" stroke="#1a1a1a" stroke-width="4"/>
<line x1="64" y1="200" x2="128" y2="200" stroke="#9a9a92" stroke-width="2" stroke-linecap="round"/>
<line x1="46" y1="180" x2="54" y2="220" stroke="#3a3a34" stroke-width="1.6" stroke-linecap="round"/>
<line x1="54" y1="180" x2="62" y2="220" stroke="#3a3a34" stroke-width="1.6" stroke-linecap="round"/>
<line x1="62" y1="180" x2="70" y2="220" stroke="#3a3a34" stroke-width="1.6" stroke-linecap="round"/>
<line x1="70" y1="180" x2="78" y2="220" stroke="#3a3a34" stroke-width="1.6" stroke-linecap="round"/>
<line x1="78" y1="180" x2="86" y2="220" stroke="#3a3a34" stroke-width="1.6" stroke-linecap="round"/>
<line x1="86" y1="180" x2="94" y2="220" stroke="#3a3a34" stroke-width="1.6" stroke-linecap="round"/>
<line x1="94" y1="180" x2="102" y2="220" stroke="#3a3a34" stroke-width="1.6" stroke-linecap="round"/>
<line x1="102" y1="180" x2="110" y2="220" stroke="#3a3a34" stroke-width="1.6" stroke-linecap="round"/>
<line x1="66" y1="199" x2="46" y2="305" stroke="#ffffff" stroke-width="20" stroke-linecap="round"/>
<line x1="66" y1="199" x2="46" y2="305" stroke="#1a1a1a" stroke-width="13.0" stroke-linecap="round"/>
<line x1="126" y1="199" x2="146" y2="305" stroke="#ffffff" stroke-width="20" stroke-linecap="round"/>
<line x1="126" y1="199" x2="146" y2="305" stroke="#1a1a1a" stroke-width="13.0" stroke-linecap="round"/>
<circle id="h1" data-fig="ma" class="skin" cx="96" cy="130" r="40" fill="#e0b48c" stroke="#1a1a1a" stroke-width="6"/>
<path d="M 56.0 130.0 Q 56.0 80.0 96 80.0 Q 136.0 80.0 136.0 130.0 Q 96 103.0 56.0 130.0 Z" fill="#2a2a2a" stroke="#1a1a1a" stroke-width="3" stroke-linejoin="round"/>
<line x1="185" y1="345" x2="179" y2="455" stroke="#1a1a1a" stroke-width="12.36" stroke-linecap="round"/>
<line x1="207" y1="345" x2="213" y2="455" stroke="#1a1a1a" stroke-width="12.36" stroke-linecap="round"/>
<ellipse cx="179" cy="457" rx="9" ry="5" fill="#33373d"/>
<ellipse cx="213" cy="457" rx="9" ry="5" fill="#33373d"/>
<polygon points="173,269 219,269 218,347 174,347" fill="#3d8a6b" stroke="#1a1a1a" stroke-width="5" stroke-linejoin="round"/>
<polygon points="174,347 218,347 218,376 174,376" fill="#e0473c" stroke="#1a1a1a" stroke-width="5" stroke-linejoin="round"/>
<line x1="174" y1="271" x2="160" y2="347" stroke="#1a1a1a" stroke-width="9.36" stroke-linecap="round"/>
<line x1="218" y1="271" x2="232" y2="347" stroke="#1a1a1a" stroke-width="9.36" stroke-linecap="round"/>
<line x1="196" y1="269" x2="196" y2="246" stroke="#1a1a1a" stroke-width="9.36" stroke-linecap="round"/>
<circle id="h2" data-fig="mc" class="skin" cx="196" cy="221" r="29" fill="#e0b48c" stroke="#1a1a1a" stroke-width="6"/>
<path d="M 167.2 221.0 Q 167.2 182.2 196 182.2 Q 224.8 182.2 224.8 221.0 Q 196 205.2 167.2 221.0 Z" fill="#241c14" stroke="#1a1a1a" stroke-width="3" stroke-linejoin="round"/>
<path d="M 270.0 197.0 L 330.0 197.0 L 330.0 287.0 L 356.0 389.0 L 244.0 389.0 L 270.0 287.0 Z" fill="#cc5544" stroke="#1a1a1a" stroke-width="5" stroke-linejoin="round"/>
<line x1="282" y1="389" x2="276" y2="455" stroke="#1a1a1a" stroke-width="13.0" stroke-linecap="round"/>
<line x1="318" y1="389" x2="324" y2="455" stroke="#1a1a1a" stroke-width="13.0" stroke-linecap="round"/>
<ellipse cx="276" cy="457" rx="13" ry="7" fill="#33373d"/>
<ellipse cx="324" cy="457" rx="13" ry="7" fill="#33373d"/>
<line x1="270" y1="199" x2="250" y2="305" stroke="#1a1a1a" stroke-width="13.0" stroke-linecap="round"/>
<line x1="330" y1="199" x2="350" y2="305" stroke="#1a1a1a" stroke-width="13.0" stroke-linecap="round"/>
<line x1="300" y1="197" x2="300" y2="166" stroke="#1a1a1a" stroke-width="13.0" stroke-linecap="round"/>
<path d="M 253.0 184.0 L 253.0 128.0 Q 253.0 76.0 300 76.0 Q 347.0 76.0 347.0 128.0 L 347.0 184.0 L 334.0 184.0 L 334.0 130.0 Q 334.0 96.0 300 96.0 Q 266.0 96.0 266.0 130.0 L 266.0 184.0 Z" fill="#5a3a1f" stroke="#1a1a1a" stroke-width="3" stroke-linejoin="round"/>
<path d="M 266.0 197 L 334.0 197 L 348.0 455 L 252.0 455 Z" fill="#23304a" stroke="#1a1a1a" stroke-width="4" stroke-linejoin="round"/>
<rect x="278" y="215" width="44" height="56" rx="0" fill="#23304a" stroke="#1a1a1a" stroke-width="3"/>
<line x1="284" y1="216" x2="290" y2="222" stroke="#c0392b" stroke-width="1.6" stroke-linecap="round"/>
<line x1="284" y1="222" x2="290" y2="216" stroke="#c0392b" stroke-width="1.6" stroke-linecap="round"/>
<line x1="292" y1="216" x2="298" y2="222" stroke="#c0392b" stroke-width="1.6" stroke-linecap="round"/>
<line x1="292" y1="222" x2="298" y2="216" stroke="#c0392b" stroke-width="1.6" stroke-linecap="round"/>
<line x1="302" y1="216" x2="308" y2="222" stroke="#c0392b" stroke-width="1.6" stroke-linecap="round"/>
<line x1="302" y1="222" x2="308" y2="216" stroke="#c0392b" stroke-width="1.6" stroke-linecap="round"/>
<line x1="310" y1="216" x2="316" y2="222" stroke="#c0392b" stroke-width="1.6" stroke-linecap="round"/>
<line x1="310" y1="222" x2="316" y2="216" stroke="#c0392b" stroke-width="1.6" stroke-linecap="round"/>
<line x1="284" y1="244" x2="290" y2="250" stroke="#c0392b" stroke-width="1.6" stroke-linecap="round"/>
<line x1="284" y1="250" x2="290" y2="244" stroke="#c0392b" stroke-width="1.6" stroke-linecap="round"/>
<line x1="292" y1="244" x2="298" y2="250" stroke="#c0392b" stroke-width="1.6" stroke-linecap="round"/>
<line x1="292" y1="250" x2="298" y2="244" stroke="#c0392b" stroke-width="1.6" stroke-linecap="round"/>
<line x1="302" y1="244" x2="308" y2="250" stroke="#c0392b" stroke-width="1.6" stroke-linecap="round"/>
<line x1="302" y1="250" x2="308" y2="244" stroke="#c0392b" stroke-width="1.6" stroke-linecap="round"/>
<line x1="310" y1="244" x2="316" y2="250" stroke="#c0392b" stroke-width="1.6" stroke-linecap="round"/>
<line x1="310" y1="250" x2="316" y2="244" stroke="#c0392b" stroke-width="1.6" stroke-linecap="round"/>
<line x1="270" y1="287" x2="260" y2="449" stroke="#c0392b" stroke-width="4" stroke-linecap="round"/>
<line x1="330" y1="287" x2="340" y2="449" stroke="#c0392b" stroke-width="4" stroke-linecap="round"/>
<line x1="265" y1="412" x2="272" y2="418" stroke="#c0392b" stroke-width="1.6" stroke-linecap="round"/>
<line x1="265" y1="418" x2="272" y2="412" stroke="#c0392b" stroke-width="1.6" stroke-linecap="round"/>
<line x1="276" y1="412" x2="282" y2="418" stroke="#c0392b" stroke-width="1.6" stroke-linecap="round"/>
<line x1="276" y1="418" x2="282" y2="412" stroke="#c0392b" stroke-width="1.6" stroke-linecap="round"/>
<line x1="286" y1="412" x2="293" y2="418" stroke="#c0392b" stroke-width="1.6" stroke-linecap="round"/>
<line x1="286" y1="418" x2="293" y2="412" stroke="#c0392b" stroke-width="1.6" stroke-linecap="round"/>
<line x1="296" y1="412" x2="304" y2="418" stroke="#c0392b" stroke-width="1.6" stroke-linecap="round"/>
<line x1="296" y1="418" x2="304" y2="412" stroke="#c0392b" stroke-width="1.6" stroke-linecap="round"/>
<line x1="307" y1="412" x2="314" y2="418" stroke="#c0392b" stroke-width="1.6" stroke-linecap="round"/>
<line x1="307" y1="418" x2="314" y2="412" stroke="#c0392b" stroke-width="1.6" stroke-linecap="round"/>
<line x1="318" y1="412" x2="324" y2="418" stroke="#c0392b" stroke-width="1.6" stroke-linecap="round"/>
<line x1="318" y1="418" x2="324" y2="412" stroke="#c0392b" stroke-width="1.6" stroke-linecap="round"/>
<line x1="328" y1="412" x2="335" y2="418" stroke="#c0392b" stroke-width="1.6" stroke-linecap="round"/>
<line x1="328" y1="418" x2="335" y2="412" stroke="#c0392b" stroke-width="1.6" stroke-linecap="round"/>
<line x1="260" y1="430" x2="267" y2="436" stroke="#c0392b" stroke-width="1.6" stroke-linecap="round"/>
<line x1="260" y1="436" x2="267" y2="430" stroke="#c0392b" stroke-width="1.6" stroke-linecap="round"/>
<line x1="270" y1="430" x2="277" y2="436" stroke="#c0392b" stroke-width="1.6" stroke-linecap="round"/>
<line x1="270" y1="436" x2="277" y2="430" stroke="#c0392b" stroke-width="1.6" stroke-linecap="round"/>
<line x1="281" y1="430" x2="288" y2="436" stroke="#c0392b" stroke-width="1.6" stroke-linecap="round"/>
<line x1="281" y1="436" x2="288" y2="430" stroke="#c0392b" stroke-width="1.6" stroke-linecap="round"/>
<line x1="291" y1="430" x2="298" y2="436" stroke="#c0392b" stroke-width="1.6" stroke-linecap="round"/>
<line x1="291" y1="436" x2="298" y2="430" stroke="#c0392b" stroke-width="1.6" stroke-linecap="round"/>
<line x1="302" y1="430" x2="309" y2="436" stroke="#c0392b" stroke-width="1.6" stroke-linecap="round"/>
<line x1="302" y1="436" x2="309" y2="430" stroke="#c0392b" stroke-width="1.6" stroke-linecap="round"/>
<line x1="312" y1="430" x2="319" y2="436" stroke="#c0392b" stroke-width="1.6" stroke-linecap="round"/>
<line x1="312" y1="436" x2="319" y2="430" stroke="#c0392b" stroke-width="1.6" stroke-linecap="round"/>
<line x1="323" y1="430" x2="330" y2="436" stroke="#c0392b" stroke-width="1.6" stroke-linecap="round"/>
<line x1="323" y1="436" x2="330" y2="430" stroke="#c0392b" stroke-width="1.6" stroke-linecap="round"/>
<line x1="333" y1="430" x2="340" y2="436" stroke="#c0392b" stroke-width="1.6" stroke-linecap="round"/>
<line x1="333" y1="436" x2="340" y2="430" stroke="#c0392b" stroke-width="1.6" stroke-linecap="round"/>
<line x1="270" y1="199" x2="250" y2="305" stroke="#ffffff" stroke-width="20" stroke-linecap="round"/>
<line x1="270" y1="199" x2="250" y2="305" stroke="#1a1a1a" stroke-width="13.0" stroke-linecap="round"/>
<line x1="330" y1="199" x2="350" y2="305" stroke="#ffffff" stroke-width="20" stroke-linecap="round"/>
<line x1="330" y1="199" x2="350" y2="305" stroke="#1a1a1a" stroke-width="13.0" stroke-linecap="round"/>
<circle id="h3" data-fig="fa" class="skin" cx="300" cy="130" r="40" fill="#e0b48c" stroke="#1a1a1a" stroke-width="6"/>
<path d="M 262.0 96.0 Q 300 82.0 338.0 96.0 Q 300 92.0 262.0 96.0 Z" fill="#5a3a1f" stroke="#1a1a1a" stroke-width="3" stroke-linejoin="round"/>
<path d="M 249.0 214 L 249.0 122 Q 249.0 74 300.0 74 Q 351.0 74 351.0 122 L 351.0 214 Q 300.0 228 249.0 214 Z" fill="#f4f3ee" stroke="#1a1a1a" stroke-width="4" stroke-linejoin="round"/>
<ellipse cx="300" cy="136" rx="26" ry="34" fill="#e0b48c" stroke="#1a1a1a" stroke-width="5"/>
<line x1="397" y1="303" x2="388" y2="455" stroke="#39425c" stroke-width="16.0" stroke-linecap="round"/>
<line x1="427" y1="303" x2="436" y2="455" stroke="#39425c" stroke-width="16.0" stroke-linecap="round"/>
<ellipse cx="388" cy="457" rx="13" ry="7" fill="#33373d"/>
<ellipse cx="436" cy="457" rx="13" ry="7" fill="#33373d"/>
<polygon points="380,197 444,197 442,305 382,305" fill="#8e44ad" stroke="#1a1a1a" stroke-width="5" stroke-linejoin="round"/>
<line x1="382" y1="199" x2="362" y2="305" stroke="#1a1a1a" stroke-width="13.0" stroke-linecap="round"/>
<line x1="442" y1="199" x2="462" y2="305" stroke="#1a1a1a" stroke-width="13.0" stroke-linecap="round"/>
<line x1="412" y1="197" x2="412" y2="166" stroke="#1a1a1a" stroke-width="13.0" stroke-linecap="round"/>
<path d="M 379.0 197 L 445.0 197 L 443.0 315 L 381.0 315 Z" fill="#e8e4d8" stroke="#1a1a1a" stroke-width="4" stroke-linejoin="round"/>
<path d="M 399.0 199 L 412.0 223 L 425.0 199" fill="none" stroke="#c8c3b4" stroke-width="4" stroke-linejoin="round"/>
<line x1="412" y1="205" x2="412" y2="311" stroke="#c8c3b4" stroke-width="3" stroke-linecap="round"/>
<circle cx="412" cy="215" r="2" fill="#b6b1a2" stroke="#1a1a1a" stroke-width="0"/>
<circle cx="412" cy="229" r="2" fill="#b6b1a2" stroke="#1a1a1a" stroke-width="0"/>
<circle cx="412" cy="243" r="2" fill="#b6b1a2" stroke="#1a1a1a" stroke-width="0"/>
<rect x="382" y="315" width="28" height="136" rx="0" fill="#3a3f47" stroke="#1a1a1a" stroke-width="4"/>
<rect x="414" y="315" width="28" height="136" rx="0" fill="#3a3f47" stroke="#1a1a1a" stroke-width="4"/>
<line x1="380" y1="200" x2="444" y2="200" stroke="#9a9a92" stroke-width="2" stroke-linecap="round"/>
<line x1="362" y1="180" x2="370" y2="220" stroke="#3a3a34" stroke-width="1.6" stroke-linecap="round"/>
<line x1="370" y1="180" x2="378" y2="220" stroke="#3a3a34" stroke-width="1.6" stroke-linecap="round"/>
<line x1="378" y1="180" x2="386" y2="220" stroke="#3a3a34" stroke-width="1.6" stroke-linecap="round"/>
<line x1="386" y1="180" x2="394" y2="220" stroke="#3a3a34" stroke-width="1.6" stroke-linecap="round"/>
<line x1="394" y1="180" x2="402" y2="220" stroke="#3a3a34" stroke-width="1.6" stroke-linecap="round"/>
<line x1="402" y1="180" x2="410" y2="220" stroke="#3a3a34" stroke-width="1.6" stroke-linecap="round"/>
<line x1="410" y1="180" x2="418" y2="220" stroke="#3a3a34" stroke-width="1.6" stroke-linecap="round"/>
<line x1="418" y1="180" x2="426" y2="220" stroke="#3a3a34" stroke-width="1.6" stroke-linecap="round"/>
<line x1="382" y1="199" x2="362" y2="305" stroke="#ffffff" stroke-width="20" stroke-linecap="round"/>
<line x1="382" y1="199" x2="362" y2="305" stroke="#1a1a1a" stroke-width="13.0" stroke-linecap="round"/>
<line x1="442" y1="199" x2="462" y2="305" stroke="#ffffff" stroke-width="20" stroke-linecap="round"/>
<line x1="442" y1="199" x2="462" y2="305" stroke="#1a1a1a" stroke-width="13.0" stroke-linecap="round"/>
<circle id="h4" data-fig="ma" class="skin" cx="412" cy="130" r="40" fill="#e0b48c" stroke="#1a1a1a" stroke-width="6"/>
<path d="M 372.0 130.0 Q 372.0 80.0 412 80.0 Q 452.0 80.0 452.0 130.0 Q 412 103.0 372.0 130.0 Z" fill="#241c14" stroke="#1a1a1a" stroke-width="3" stroke-linejoin="round"/>
<path d="M 370.0 130 Q 346.0 214 380.0 222 L 444.0 222 Q 478.0 214 454.0 130 Z" fill="#f5f5ef" stroke="#1a1a1a" stroke-width="4" stroke-linejoin="round"/>
<circle cx="412" cy="130" r="40" fill="#e0b48c" stroke="#1a1a1a" stroke-width="6"/>
<path d="M 370.0 128 Q 370.0 74 412.0 74 Q 454.0 74 454.0 128 Q 412.0 102 370.0 128 Z" fill="#f5f5ef" stroke="#1a1a1a" stroke-width="4" stroke-linejoin="round"/>
<ellipse cx="412" cy="92" rx="38" ry="9" fill="none" stroke="#2b2b2b" stroke-width="7"/>
<ellipse cx="412" cy="94" rx="38" ry="8" fill="none" stroke="#1a1a1a" stroke-width="6"/>
<circle cx="397" cy="132" r="9" fill="none" stroke="#333" stroke-width="3"/>
<circle cx="427" cy="132" r="9" fill="none" stroke="#333" stroke-width="3"/>
<line x1="406" y1="132" x2="418" y2="132" stroke="#333" stroke-width="3" stroke-linecap="round"/>
<path d="M 464.0 217.0 L 472.0 455" fill="none" stroke="#9a6a3a" stroke-width="7" stroke-linejoin="round"/>
</g></svg>
