<svg data-cover="arms:covered" xmlns="http://www.w3.org/2000/svg" viewBox="0 0 512 512" data-copyright="© 2026 Sensory App House"><!--SAH-COPYRIGHT © 2026 Sensory App House. All rights reserved.--><metadata id="sah-copyright"><rdf:RDF xmlns:rdf="http://www.w3.org/1999/02/22-rdf-syntax-ns#" xmlns:dc="http://purl.org/dc/elements/1.1/" xmlns:cc="http://creativecommons.org/ns#"><cc:Work rdf:about=""><dc:rights><cc:Agent><dc:title>© 2026 Sensory App House. All rights reserved.</dc:title></cc:Agent></dc:rights><dc:creator><cc:Agent><dc:title>Sensory App House (PiCom)</dc:title></cc:Agent></dc:creator><dc:date>2026</dc:date></cc:Work></rdf:RDF></metadata><metadata id="sah">{"v":1,"fig":[["h1","ma"]]}</metadata><g data-fit="1" transform="translate(256 256) scale(1.1673) translate(-321.00 -246.00)">
<rect x="227" y="78" width="18" height="50" rx="2" fill="#9aa7b5" stroke="#1a1a1a" stroke-width="3"/>
<ellipse cx="236" cy="138" rx="40" ry="11" fill="#9aa7b5" stroke="#1a1a1a" stroke-width="4"/>
<line x1="200" y1="148" x2="195" y2="300" stroke="#7ec8f0" stroke-width="4" stroke-linecap="round"/>
<line x1="209" y1="148" x2="204" y2="300" stroke="#7ec8f0" stroke-width="4" stroke-linecap="round"/>
<line x1="218" y1="148" x2="213" y2="300" stroke="#7ec8f0" stroke-width="4" stroke-linecap="round"/>
<line x1="227" y1="148" x2="222" y2="300" stroke="#7ec8f0" stroke-width="4" stroke-linecap="round"/>
<line x1="236" y1="148" x2="231" y2="300" stroke="#7ec8f0" stroke-width="4" stroke-linecap="round"/>
<line x1="245" y1="148" x2="240" y2="300" stroke="#7ec8f0" stroke-width="4" stroke-linecap="round"/>
<line x1="254" y1="148" x2="249" y2="300" stroke="#7ec8f0" stroke-width="4" stroke-linecap="round"/>
<line x1="263" y1="148" x2="258" y2="300" stroke="#7ec8f0" stroke-width="4" stroke-linecap="round"/>
<line x1="272" y1="148" x2="267" y2="300" stroke="#7ec8f0" stroke-width="4" stroke-linecap="round"/>
<line x1="221" y1="278" x2="212" y2="430" stroke="#39425c" stroke-width="16.0" stroke-linecap="round"/>
<line x1="251" y1="278" x2="260" y2="430" stroke="#39425c" stroke-width="16.0" stroke-linecap="round"/>
<ellipse cx="212" cy="432" rx="13" ry="7" fill="#33373d"/>
<ellipse cx="260" cy="432" rx="13" ry="7" fill="#33373d"/>
<polygon points="204,172 268,172 266,280 206,280" fill="#e8e4d8" stroke="#1a1a1a" stroke-width="5" stroke-linejoin="round"/>
<line x1="206" y1="174" x2="186" y2="280" stroke="#1a1a1a" stroke-width="13.0" stroke-linecap="round"/>
<line x1="266" y1="174" x2="286" y2="280" stroke="#1a1a1a" stroke-width="13.0" stroke-linecap="round"/>
<line x1="236" y1="172" x2="236" y2="141" stroke="#1a1a1a" stroke-width="13.0" stroke-linecap="round"/>
<g transform="translate(0,-25)"><path d="M 202.0 197 L 270.0 197 L 268.0 335 L 204.0 335 Z" fill="#e8e4d8" stroke="#1a1a1a" stroke-width="4"/>
<path d="M 203.0 197 L 269.0 197 L 267.0 315 L 205.0 315 Z" fill="#e8e4d8" stroke="#1a1a1a" stroke-width="4" stroke-linejoin="round"/>
<path d="M 223.0 199 L 236.0 223 L 249.0 199" fill="none" stroke="#c8c3b4" stroke-width="4" stroke-linejoin="round"/>
<line x1="236" y1="205" x2="236" y2="311" stroke="#c8c3b4" stroke-width="3" stroke-linecap="round"/>
<circle cx="236" cy="215" r="2" fill="#b6b1a2" stroke="#1a1a1a" stroke-width="0"/>
<circle cx="236" cy="229" r="2" fill="#b6b1a2" stroke="#1a1a1a" stroke-width="0"/>
<circle cx="236" cy="243" r="2" fill="#b6b1a2" stroke="#1a1a1a" stroke-width="0"/>
<line x1="204" y1="200" x2="268" y2="200" stroke="#9a9a92" stroke-width="2" stroke-linecap="round"/>
<line x1="186" y1="180" x2="194" y2="220" stroke="#3a3a34" stroke-width="1.6" stroke-linecap="round"/>
<line x1="194" y1="180" x2="202" y2="220" stroke="#3a3a34" stroke-width="1.6" stroke-linecap="round"/>
<line x1="202" y1="180" x2="210" y2="220" stroke="#3a3a34" stroke-width="1.6" stroke-linecap="round"/>
<line x1="210" y1="180" x2="218" y2="220" stroke="#3a3a34" stroke-width="1.6" stroke-linecap="round"/>
<line x1="218" y1="180" x2="226" y2="220" stroke="#3a3a34" stroke-width="1.6" stroke-linecap="round"/>
<line x1="226" y1="180" x2="234" y2="220" stroke="#3a3a34" stroke-width="1.6" stroke-linecap="round"/>
<line x1="234" y1="180" x2="242" y2="220" stroke="#3a3a34" stroke-width="1.6" stroke-linecap="round"/>
<line x1="242" y1="180" x2="250" y2="220" stroke="#3a3a34" stroke-width="1.6" stroke-linecap="round"/></g>
<line x1="206" y1="174" x2="186" y2="280" stroke="#ffffff" stroke-width="20" stroke-linecap="round"/>
<line x1="206" y1="174" x2="186" y2="280" stroke="#1a1a1a" stroke-width="13.0" stroke-linecap="round"/>
<line x1="266" y1="174" x2="286" y2="280" stroke="#ffffff" stroke-width="20" stroke-linecap="round"/>
<line x1="266" y1="174" x2="286" y2="280" stroke="#1a1a1a" stroke-width="13.0" stroke-linecap="round"/>
<circle id="h1" data-fig="ma" class="skin" cx="236" cy="105" r="40" fill="#e0b48c" stroke="#1a1a1a" stroke-width="6"/>
<path d="M 196.0 105.0 Q 196.0 55.0 236 55.0 Q 276.0 55.0 276.0 105.0 Q 236 78.0 196.0 105.0 Z" fill="#241c14" stroke="#1a1a1a" stroke-width="3" stroke-linejoin="round"/>
<g transform="translate(0,-25)"><path d="M 194.0 130 Q 170.0 214 204.0 222 L 268.0 222 Q 302.0 214 278.0 130 Z" fill="#f5f5ef" stroke="#1a1a1a" stroke-width="4" stroke-linejoin="round"/>
<circle cx="236" cy="130" r="40" fill="#e0b48c" stroke="#1a1a1a" stroke-width="6"/>
<path d="M 194.0 128 Q 194.0 74 236.0 74 Q 278.0 74 278.0 128 Q 236.0 102 194.0 128 Z" fill="#f5f5ef" stroke="#1a1a1a" stroke-width="4" stroke-linejoin="round"/>
<ellipse cx="236" cy="92" rx="38" ry="9" fill="none" stroke="#2b2b2b" stroke-width="7"/>
<ellipse cx="236" cy="94" rx="38" ry="8" fill="none" stroke="#1a1a1a" stroke-width="6"/></g>
<rect x="202" y="274" width="68" height="40" rx="10" fill="#4a90d9" stroke="#1a1a1a" stroke-width="5"/>
<rect x="360" y="106" width="100" height="88" rx="8" fill="#ffffff" stroke="#1a1a1a" stroke-width="6"/>
<rect x="360" y="106" width="100" height="22" rx="8" fill="#4a90d9" stroke="#1a1a1a" stroke-width="6"/>
<rect x="376" y="98" width="10" height="18" rx="3" fill="#cdd3da" stroke="#1a1a1a" stroke-width="4"/>
<rect x="434" y="98" width="10" height="18" rx="3" fill="#cdd3da" stroke="#1a1a1a" stroke-width="4"/>
<path d="M 388 156 l 16 18 l 34 -38" fill="none" stroke="#2f9e4a" stroke-width="12" stroke-linejoin="round"/>
</g></svg>
